<svg width="393" height="125" viewBox="0 0 393 125" fill="none" xmlns="http://www.w3.org/2000/svg">
<rect width="393" height="125" fill="#07294D"/>
<mask id="mask0_3337_9481" style="mask-type:alpha" maskUnits="userSpaceOnUse" x="294" y="32" width="26" height="26">
<rect x="294" y="32" width="25.6768" height="25.6768" fill="#D9D9D9"/>
</mask>
<g mask="url(#mask0_3337_9481)">
<path d="M316.415 45.895L314.756 44.4556C315.541 43.8209 316.156 43.0702 316.602 42.2035C317.048 41.3367 317.27 40.4157 317.27 39.4406C317.27 38.4654 317.048 37.5522 316.602 36.7009C316.156 35.8496 315.541 35.1066 314.756 34.472L316.415 32.9861C317.413 33.8064 318.207 34.7738 318.795 35.8883C319.383 37.0027 319.678 38.1868 319.678 39.4406C319.678 40.6943 319.383 41.8784 318.795 42.9929C318.207 44.1073 317.413 45.0747 316.415 45.895ZM312.991 42.9232L311.279 41.4373C311.6 41.1741 311.859 40.8762 312.055 40.5434C312.251 40.2106 312.349 39.843 312.349 39.4406C312.349 39.0381 312.251 38.6705 312.055 38.3377C311.859 38.0049 311.6 37.707 311.279 37.4439L312.991 35.9579C313.562 36.4068 314.007 36.9292 314.328 37.5251C314.649 38.121 314.81 38.7595 314.81 39.4406C314.81 40.1216 314.649 40.7601 314.328 41.356C314.007 41.9519 313.562 42.4743 312.991 42.9232ZM304.7 43.1554C303.523 43.1554 302.515 42.7916 301.677 42.0641C300.839 41.3367 300.42 40.4621 300.42 39.4406C300.42 38.419 300.839 37.5445 301.677 36.817C302.515 36.0895 303.523 35.7258 304.7 35.7258C305.876 35.7258 306.884 36.0895 307.722 36.817C308.56 37.5445 308.979 38.419 308.979 39.4406C308.979 40.4621 308.56 41.3367 307.722 42.0641C306.884 42.7916 305.876 43.1554 304.7 43.1554ZM296.141 50.585V47.9846C296.141 47.4738 296.292 46.994 296.595 46.5451C296.898 46.0963 297.317 45.7557 297.852 45.5236C298.762 45.1211 299.787 44.7806 300.928 44.502C302.069 44.2234 303.327 44.0841 304.7 44.0841C306.073 44.0841 307.33 44.2234 308.471 44.502C309.612 44.7806 310.637 45.1211 311.547 45.5236C312.082 45.7557 312.501 46.0963 312.804 46.5451C313.107 46.994 313.258 47.4738 313.258 47.9846V50.585H296.141ZM298.28 48.7276H311.119V47.9846C311.119 47.8144 311.07 47.6596 310.972 47.5203C310.874 47.381 310.744 47.2726 310.584 47.1952C309.942 46.9166 309.117 46.638 308.11 46.3594C307.102 46.0808 305.966 45.9415 304.7 45.9415C303.434 45.9415 302.297 46.0808 301.289 46.3594C300.282 46.638 299.457 46.9166 298.815 47.1952C298.655 47.2726 298.526 47.381 298.427 47.5203C298.329 47.6596 298.28 47.8144 298.28 47.9846V48.7276ZM304.7 41.298C305.288 41.298 305.792 41.1161 306.211 40.7524C306.63 40.3886 306.839 39.9514 306.839 39.4406C306.839 38.9298 306.63 38.4925 306.211 38.1288C305.792 37.765 305.288 37.5832 304.7 37.5832C304.111 37.5832 303.607 37.765 303.188 38.1288C302.769 38.4925 302.56 38.9298 302.56 39.4406C302.56 39.9514 302.769 40.3886 303.188 40.7524C303.607 41.1161 304.111 41.298 304.7 41.298Z" fill="#07294D"/>
</g>
</svg>
