<svg width="162" height="162" viewBox="0 0 162 162" fill="none" xmlns="http://www.w3.org/2000/svg">
<g clip-path="url(#clip0_4288_1862)">
<path d="M161.954 0.125977H0.522461V161.558H161.954V0.125977Z" fill="white"/>
<path d="M13.8662 7.61139H8.00781V13.4698H13.8662V7.61139Z" fill="#07294D"/>
<path d="M19.7247 7.61139H13.8662V13.4698H19.7247V7.61139Z" fill="#07294D"/>
<path d="M25.5831 7.61139H19.7247V13.4698H25.5831V7.61139Z" fill="#07294D"/>
<path d="M31.4415 7.61139H25.5831V13.4698H31.4415V7.61139Z" fill="#07294D"/>
<path d="M37.2999 7.61139H31.4415V13.4698H37.2999V7.61139Z" fill="#07294D"/>
<path d="M43.1584 7.61139H37.2999V13.4698H43.1584V7.61139Z" fill="#07294D"/>
<path d="M49.0168 7.61139H43.1584V13.4698H49.0168V7.61139Z" fill="#07294D"/>
<path d="M60.7337 7.61139H54.8752V13.4698H60.7337V7.61139Z" fill="#07294D"/>
<path d="M72.4505 7.61139H66.5921V13.4698H72.4505V7.61139Z" fill="#07294D"/>
<path d="M78.3089 7.61139H72.4505V13.4698H78.3089V7.61139Z" fill="#07294D"/>
<path d="M90.0258 7.61139H84.1674V13.4698H90.0258V7.61139Z" fill="#07294D"/>
<path d="M95.8842 7.61139H90.0258V13.4698H95.8842V7.61139Z" fill="#07294D"/>
<path d="M101.743 7.61139H95.8842V13.4698H101.743V7.61139Z" fill="#07294D"/>
<path d="M107.601 7.61139H101.743V13.4698H107.601V7.61139Z" fill="#07294D"/>
<path d="M119.318 7.61139H113.46V13.4698H119.318V7.61139Z" fill="#07294D"/>
<path d="M125.176 7.61139H119.318V13.4698H125.176V7.61139Z" fill="#07294D"/>
<path d="M131.035 7.61139H125.176V13.4698H131.035V7.61139Z" fill="#07294D"/>
<path d="M136.893 7.61139H131.035V13.4698H136.893V7.61139Z" fill="#07294D"/>
<path d="M142.752 7.61139H136.893V13.4698H142.752V7.61139Z" fill="#07294D"/>
<path d="M148.61 7.61139H142.752V13.4698H148.61V7.61139Z" fill="#07294D"/>
<path d="M154.468 7.61139H148.61V13.4698H154.468V7.61139Z" fill="#07294D"/>
<path d="M13.8662 13.4698H8.00781V19.3282H13.8662V13.4698Z" fill="#07294D"/>
<path d="M49.0168 13.4698H43.1584L43.1584 19.3282H49.0168V13.4698Z" fill="#07294D"/>
<path d="M66.5921 13.4698H60.7337V19.3282H66.5921V13.4698Z" fill="#07294D"/>
<path d="M72.4505 13.4698H66.5921V19.3282H72.4505V13.4698Z" fill="#07294D"/>
<path d="M90.0258 13.4698H84.1674V19.3282H90.0258V13.4698Z" fill="#07294D"/>
<path d="M95.8842 13.4698H90.0258V19.3282H95.8842V13.4698Z" fill="#07294D"/>
<path d="M119.318 13.4698H113.46V19.3282H119.318V13.4698Z" fill="#07294D"/>
<path d="M154.468 13.4698H148.61V19.3282H154.468V13.4698Z" fill="#07294D"/>
<path d="M13.8662 19.3282H8.00781V25.1867H13.8662V19.3282Z" fill="#07294D"/>
<path d="M25.5831 19.3282H19.7247V25.1867H25.5831V19.3282Z" fill="#07294D"/>
<path d="M31.4415 19.3282H25.5831V25.1867H31.4415V19.3282Z" fill="#07294D"/>
<path d="M37.2999 19.3282H31.4415V25.1867H37.2999V19.3282Z" fill="#07294D"/>
<path d="M49.0168 19.3282H43.1584V25.1867H49.0168V19.3282Z" fill="#07294D"/>
<path d="M66.5921 19.3282H60.7337V25.1867H66.5921V19.3282Z" fill="#07294D"/>
<path d="M72.4505 19.3282H66.5921V25.1867H72.4505V19.3282Z" fill="#07294D"/>
<path d="M78.3089 19.3282H72.4505V25.1867H78.3089V19.3282Z" fill="#07294D"/>
<path d="M84.1674 19.3282H78.3089V25.1867H84.1674V19.3282Z" fill="#07294D"/>
<path d="M90.0258 19.3282H84.1674V25.1867H90.0258V19.3282Z" fill="#07294D"/>
<path d="M101.743 19.3282H95.8842L95.8842 25.1867H101.743V19.3282Z" fill="#07294D"/>
<path d="M119.318 19.3282H113.46V25.1867H119.318V19.3282Z" fill="#07294D"/>
<path d="M131.035 19.3282H125.176V25.1867H131.035V19.3282Z" fill="#07294D"/>
<path d="M136.893 19.3282H131.035V25.1867H136.893V19.3282Z" fill="#07294D"/>
<path d="M142.752 19.3282H136.893V25.1867H142.752V19.3282Z" fill="#07294D"/>
<path d="M154.468 19.3282H148.61V25.1867H154.468V19.3282Z" fill="#07294D"/>
<path d="M13.8662 25.1867H8.00781V31.0451H13.8662V25.1867Z" fill="#07294D"/>
<path d="M25.5831 25.1867H19.7247V31.0451H25.5831V25.1867Z" fill="#07294D"/>
<path d="M31.4415 25.1867H25.5831V31.0451H31.4415V25.1867Z" fill="#07294D"/>
<path d="M37.2999 25.1867H31.4415V31.0451H37.2999V25.1867Z" fill="#07294D"/>
<path d="M49.0168 25.1867H43.1584V31.0451H49.0168V25.1867Z" fill="#07294D"/>
<path d="M60.7337 25.1867H54.8752V31.0451H60.7337V25.1867Z" fill="#07294D"/>
<path d="M66.5921 25.1867H60.7337V31.0451H66.5921V25.1867Z" fill="#07294D"/>
<path d="M72.4505 25.1867H66.5921V31.0451H72.4505V25.1867Z" fill="#07294D"/>
<path d="M78.3089 25.1867H72.4505V31.0451H78.3089V25.1867Z" fill="#07294D"/>
<path d="M84.1674 25.1867H78.3089V31.0451H84.1674V25.1867Z" fill="#07294D"/>
<path d="M119.318 25.1867H113.46V31.0451H119.318V25.1867Z" fill="#07294D"/>
<path d="M131.035 25.1867H125.176V31.0451H131.035V25.1867Z" fill="#07294D"/>
<path d="M136.893 25.1867H131.035V31.0451H136.893V25.1867Z" fill="#07294D"/>
<path d="M142.752 25.1867H136.893V31.0451H142.752V25.1867Z" fill="#07294D"/>
<path d="M154.468 25.1867H148.61V31.0451H154.468V25.1867Z" fill="#07294D"/>
<path d="M13.8662 31.0451H8.00781V36.9035H13.8662V31.0451Z" fill="#07294D"/>
<path d="M25.5831 31.0451H19.7247V36.9035H25.5831V31.0451Z" fill="#07294D"/>
<path d="M31.4415 31.0451H25.5831V36.9035H31.4415V31.0451Z" fill="#07294D"/>
<path d="M37.2999 31.0451H31.4415V36.9035H37.2999V31.0451Z" fill="#07294D"/>
<path d="M49.0168 31.0451H43.1584V36.9035H49.0168V31.0451Z" fill="#07294D"/>
<path d="M60.7337 31.0451H54.8752V36.9035H60.7337V31.0451Z" fill="#07294D"/>
<path d="M72.4505 31.0451H66.5921V36.9035H72.4505V31.0451Z" fill="#07294D"/>
<path d="M84.1674 31.0451H78.3089V36.9035H84.1674V31.0451Z" fill="#07294D"/>
<path d="M90.0258 31.0451H84.1674V36.9035H90.0258V31.0451Z" fill="#07294D"/>
<path d="M101.743 31.0451H95.8842V36.9035H101.743V31.0451Z" fill="#07294D"/>
<path d="M107.601 31.0451H101.743V36.9035H107.601V31.0451Z" fill="#07294D"/>
<path d="M119.318 31.0451H113.46V36.9035H119.318V31.0451Z" fill="#07294D"/>
<path d="M131.035 31.0451H125.176V36.9035H131.035V31.0451Z" fill="#07294D"/>
<path d="M136.893 31.0451H131.035V36.9035H136.893V31.0451Z" fill="#07294D"/>
<path d="M142.752 31.0451H136.893V36.9035H142.752V31.0451Z" fill="#07294D"/>
<path d="M154.468 31.0451H148.61V36.9035H154.468V31.0451Z" fill="#07294D"/>
<path d="M13.8662 36.9035H8.00781V42.762H13.8662V36.9035Z" fill="#07294D"/>
<path d="M49.0168 36.9035H43.1584V42.762H49.0168V36.9035Z" fill="#07294D"/>
<path d="M60.7337 36.9035H54.8752V42.762H60.7337V36.9035Z" fill="#07294D"/>
<path d="M66.5921 36.9035H60.7337V42.762H66.5921V36.9035Z" fill="#07294D"/>
<path d="M78.3089 36.9035H72.4505V42.762H78.3089V36.9035Z" fill="#07294D"/>
<path d="M90.0258 36.9035H84.1674V42.762H90.0258V36.9035Z" fill="#07294D"/>
<path d="M101.743 36.9035H95.8842V42.762H101.743V36.9035Z" fill="#07294D"/>
<path d="M119.318 36.9035H113.46V42.762H119.318V36.9035Z" fill="#07294D"/>
<path d="M154.468 36.9035H148.61V42.762H154.468V36.9035Z" fill="#07294D"/>
<path d="M13.8662 42.762H8.00781V48.6204H13.8662V42.762Z" fill="#07294D"/>
<path d="M19.7247 42.7619L13.8662 42.762V48.6204H19.7247V42.7619Z" fill="#07294D"/>
<path d="M25.5831 42.7619H19.7247V48.6204H25.5831V42.7619Z" fill="#07294D"/>
<path d="M31.4415 42.7619H25.5831V48.6204H31.4415V42.7619Z" fill="#07294D"/>
<path d="M37.2999 42.7619H31.4415V48.6204H37.2999V42.7619Z" fill="#07294D"/>
<path d="M43.1584 42.762L37.2999 42.7619V48.6204H43.1584L43.1584 42.762Z" fill="#07294D"/>
<path d="M49.0168 42.762H43.1584L43.1584 48.6204H49.0168V42.762Z" fill="#07294D"/>
<path d="M60.7337 42.762H54.8752V48.6204H60.7337V42.762Z" fill="#07294D"/>
<path d="M72.4505 42.762H66.5921V48.6204H72.4505V42.762Z" fill="#07294D"/>
<path d="M84.1674 42.762H78.3089V48.6204H84.1674V42.762Z" fill="#07294D"/>
<path d="M95.8842 42.762H90.0258V48.6204H95.8842L95.8842 42.762Z" fill="#07294D"/>
<path d="M107.601 42.7619L101.743 42.762V48.6204H107.601V42.7619Z" fill="#07294D"/>
<path d="M119.318 42.762H113.46V48.6204H119.318V42.762Z" fill="#07294D"/>
<path d="M125.176 42.7619L119.318 42.762V48.6204H125.176V42.7619Z" fill="#07294D"/>
<path d="M131.035 42.7619H125.176V48.6204H131.035V42.7619Z" fill="#07294D"/>
<path d="M136.893 42.7619H131.035V48.6204H136.893V42.7619Z" fill="#07294D"/>
<path d="M142.752 42.7619H136.893V48.6204H142.752V42.7619Z" fill="#07294D"/>
<path d="M148.61 42.762L142.752 42.7619V48.6204H148.61V42.762Z" fill="#07294D"/>
<path d="M154.468 42.762H148.61V48.6204H154.468V42.762Z" fill="#07294D"/>
<path d="M60.7337 48.6204H54.8752V54.4788H60.7337V48.6204Z" fill="#07294D"/>
<path d="M66.5921 48.6204H60.7337V54.4788H66.5921V48.6204Z" fill="#07294D"/>
<path d="M72.4505 48.6204H66.5921V54.4788H72.4505V48.6204Z" fill="#07294D"/>
<path d="M78.3089 48.6204H72.4505V54.4788H78.3089V48.6204Z" fill="#07294D"/>
<path d="M84.1674 48.6204H78.3089V54.4788H84.1674V48.6204Z" fill="#07294D"/>
<path d="M95.8842 48.6204H90.0258V54.4788H95.8842V48.6204Z" fill="#07294D"/>
<path d="M13.8662 54.4788H8.00781V60.3372H13.8662V54.4788Z" fill="#07294D"/>
<path d="M19.7247 54.4788H13.8662V60.3372H19.7247V54.4788Z" fill="#07294D"/>
<path d="M25.5831 54.4788H19.7247V60.3372H25.5831V54.4788Z" fill="#07294D"/>
<path d="M37.2999 54.4788H31.4415V60.3372H37.2999V54.4788Z" fill="#07294D"/>
<path d="M49.0168 54.4788H43.1584V60.3372H49.0168V54.4788Z" fill="#07294D"/>
<path d="M60.7337 54.4788H54.8752V60.3372H60.7337V54.4788Z" fill="#07294D"/>
<path d="M72.4505 54.4788H66.5921V60.3372H72.4505V54.4788Z" fill="#07294D"/>
<path d="M78.3089 54.4788H72.4505V60.3372H78.3089V54.4788Z" fill="#07294D"/>
<path d="M95.8842 54.4788H90.0258V60.3372H95.8842V54.4788Z" fill="#07294D"/>
<path d="M101.743 54.4788H95.8842V60.3372H101.743V54.4788Z" fill="#07294D"/>
<path d="M113.46 54.4788H107.601V60.3372H113.46V54.4788Z" fill="#07294D"/>
<path d="M119.318 54.4788H113.46V60.3372H119.318V54.4788Z" fill="#07294D"/>
<path d="M125.176 54.4788H119.318V60.3372H125.176V54.4788Z" fill="#07294D"/>
<path d="M131.035 54.4788H125.176V60.3372H131.035V54.4788Z" fill="#07294D"/>
<path d="M136.893 54.4788H131.035V60.3372H136.893V54.4788Z" fill="#07294D"/>
<path d="M154.468 54.4788H148.61V60.3372H154.468V54.4788Z" fill="#07294D"/>
<path d="M13.8662 60.3372H8.00781V66.1957H13.8662V60.3372Z" fill="#07294D"/>
<path d="M19.7247 60.3372H13.8662V66.1957H19.7247V60.3372Z" fill="#07294D"/>
<path d="M31.4415 60.3372H25.5831V66.1957H31.4415V60.3372Z" fill="#07294D"/>
<path d="M60.7337 60.3372H54.8752V66.1957H60.7337V60.3372Z" fill="#07294D"/>
<path d="M72.4505 60.3372H66.5921V66.1957H72.4505V60.3372Z" fill="#07294D"/>
<path d="M84.1674 60.3372H78.3089V66.1957H84.1674V60.3372Z" fill="#07294D"/>
<path d="M101.743 60.3372H95.8842L95.8842 66.1957H101.743V60.3372Z" fill="#07294D"/>
<path d="M107.601 60.3372H101.743V66.1957H107.601V60.3372Z" fill="#07294D"/>
<path d="M119.318 60.3372H113.46V66.1957H119.318V60.3372Z" fill="#07294D"/>
<path d="M125.176 60.3372H119.318V66.1957H125.176V60.3372Z" fill="#07294D"/>
<path d="M131.035 60.3372H125.176V66.1957H131.035V60.3372Z" fill="#07294D"/>
<path d="M13.8662 66.1957H8.00781V72.0541H13.8662V66.1957Z" fill="#07294D"/>
<path d="M25.5831 66.1957H19.7247V72.0541H25.5831V66.1957Z" fill="#07294D"/>
<path d="M43.1584 66.1957H37.2999V72.0541H43.1584V66.1957Z" fill="#07294D"/>
<path d="M49.0168 66.1957H43.1584V72.0541H49.0168V66.1957Z" fill="#07294D"/>
<path d="M54.8752 66.1957H49.0168V72.0541H54.8752V66.1957Z" fill="#07294D"/>
<path d="M72.4505 66.1957H66.5921V72.0541H72.4505V66.1957Z" fill="#07294D"/>
<path d="M78.3089 66.1957H72.4505V72.0541H78.3089V66.1957Z" fill="#07294D"/>
<path d="M84.1674 66.1957H78.3089V72.0541H84.1674V66.1957Z" fill="#07294D"/>
<path d="M95.8842 66.1957H90.0258V72.0541H95.8842L95.8842 66.1957Z" fill="#07294D"/>
<path d="M101.743 66.1957H95.8842L95.8842 72.0541H101.743V66.1957Z" fill="#07294D"/>
<path d="M113.46 66.1957H107.601V72.0541H113.46V66.1957Z" fill="#07294D"/>
<path d="M125.176 66.1957H119.318V72.0541H125.176V66.1957Z" fill="#07294D"/>
<path d="M131.035 66.1957H125.176V72.0541H131.035V66.1957Z" fill="#07294D"/>
<path d="M136.893 66.1957H131.035V72.0541H136.893V66.1957Z" fill="#07294D"/>
<path d="M25.5831 72.0541H19.7247V77.9125H25.5831V72.0541Z" fill="#07294D"/>
<path d="M43.1584 72.0541H37.2999V77.9125H43.1584V72.0541Z" fill="#07294D"/>
<path d="M54.8752 72.0541H49.0168V77.9125H54.8752V72.0541Z" fill="#07294D"/>
<path d="M66.5921 72.0541H60.7337V77.9125H66.5921V72.0541Z" fill="#07294D"/>
<path d="M95.8842 72.0541H90.0258V77.9125H95.8842V72.0541Z" fill="#07294D"/>
<path d="M101.743 72.0541H95.8842V77.9125H101.743V72.0541Z" fill="#07294D"/>
<path d="M113.46 72.0541H107.601V77.9125H113.46V72.0541Z" fill="#07294D"/>
<path d="M119.318 72.0541H113.46V77.9125H119.318V72.0541Z" fill="#07294D"/>
<path d="M13.8662 77.9125H8.00781V83.7709H13.8662V77.9125Z" fill="#07294D"/>
<path d="M31.4415 77.9125H25.5831V83.7709H31.4415V77.9125Z" fill="#07294D"/>
<path d="M49.0168 77.9125H43.1584L43.1584 83.7709H49.0168V77.9125Z" fill="#07294D"/>
<path d="M66.5921 77.9125H60.7337V83.7709H66.5921V77.9125Z" fill="#07294D"/>
<path d="M72.4505 77.9125H66.5921V83.7709H72.4505V77.9125Z" fill="#07294D"/>
<path d="M78.3089 77.9125H72.4505V83.7709H78.3089V77.9125Z" fill="#07294D"/>
<path d="M84.1674 77.9125H78.3089V83.7709H84.1674V77.9125Z" fill="#07294D"/>
<path d="M95.8842 77.9125H90.0258V83.7709H95.8842V77.9125Z" fill="#07294D"/>
<path d="M113.46 77.9125H107.601V83.7709H113.46V77.9125Z" fill="#07294D"/>
<path d="M125.176 77.9125H119.318V83.7709H125.176V77.9125Z" fill="#07294D"/>
<path d="M131.035 77.9125H125.176V83.7709H131.035V77.9125Z" fill="#07294D"/>
<path d="M142.752 77.9125H136.893V83.7709H142.752V77.9125Z" fill="#07294D"/>
<path d="M13.8662 83.7709H8.00781V89.6294H13.8662V83.7709Z" fill="#07294D"/>
<path d="M19.7247 83.7709H13.8662V89.6294H19.7247V83.7709Z" fill="#07294D"/>
<path d="M25.5831 83.7709H19.7247V89.6294H25.5831V83.7709Z" fill="#07294D"/>
<path d="M31.4415 83.7709H25.5831V89.6294H31.4415V83.7709Z" fill="#07294D"/>
<path d="M37.2999 83.7709H31.4415V89.6294H37.2999V83.7709Z" fill="#07294D"/>
<path d="M43.1584 83.7709H37.2999V89.6294H43.1584L43.1584 83.7709Z" fill="#07294D"/>
<path d="M54.8752 83.7709H49.0168V89.6294H54.8752V83.7709Z" fill="#07294D"/>
<path d="M60.7337 83.7709H54.8752V89.6294H60.7337V83.7709Z" fill="#07294D"/>
<path d="M66.5921 83.7709H60.7337V89.6294H66.5921V83.7709Z" fill="#07294D"/>
<path d="M72.4505 83.7709H66.5921V89.6294H72.4505V83.7709Z" fill="#07294D"/>
<path d="M78.3089 83.7709H72.4505V89.6294H78.3089V83.7709Z" fill="#07294D"/>
<path d="M84.1674 83.7709H78.3089V89.6294H84.1674V83.7709Z" fill="#07294D"/>
<path d="M90.0258 83.7709H84.1674V89.6294H90.0258V83.7709Z" fill="#07294D"/>
<path d="M95.8842 83.7709H90.0258V89.6294H95.8842V83.7709Z" fill="#07294D"/>
<path d="M113.46 83.7709H107.601V89.6294H113.46V83.7709Z" fill="#07294D"/>
<path d="M131.035 83.7709H125.176V89.6294H131.035V83.7709Z" fill="#07294D"/>
<path d="M154.468 83.7709H148.61V89.6294H154.468V83.7709Z" fill="#07294D"/>
<path d="M25.5831 89.6294H19.7247V95.4878H25.5831V89.6294Z" fill="#07294D"/>
<path d="M31.4415 89.6294H25.5831V95.4878H31.4415V89.6294Z" fill="#07294D"/>
<path d="M37.2999 89.6294H31.4415V95.4878H37.2999V89.6294Z" fill="#07294D"/>
<path d="M43.1584 89.6294H37.2999V95.4878H43.1584V89.6294Z" fill="#07294D"/>
<path d="M49.0168 89.6294H43.1584V95.4878H49.0168V89.6294Z" fill="#07294D"/>
<path d="M66.5921 89.6294H60.7337V95.4878H66.5921V89.6294Z" fill="#07294D"/>
<path d="M90.0258 89.6294H84.1674V95.4878H90.0258V89.6294Z" fill="#07294D"/>
<path d="M107.601 89.6294H101.743V95.4878H107.601V89.6294Z" fill="#07294D"/>
<path d="M113.46 89.6294H107.601V95.4878H113.46V89.6294Z" fill="#07294D"/>
<path d="M125.176 89.6294H119.318V95.4878H125.176V89.6294Z" fill="#07294D"/>
<path d="M131.035 89.6294H125.176V95.4878H131.035V89.6294Z" fill="#07294D"/>
<path d="M136.893 89.6294H131.035V95.4878H136.893V89.6294Z" fill="#07294D"/>
<path d="M142.752 89.6294H136.893V95.4878H142.752V89.6294Z" fill="#07294D"/>
<path d="M148.61 89.6294H142.752V95.4878H148.61V89.6294Z" fill="#07294D"/>
<path d="M154.468 89.6294H148.61V95.4878H154.468V89.6294Z" fill="#07294D"/>
<path d="M25.5831 95.4878H19.7247V101.346H25.5831V95.4878Z" fill="#07294D"/>
<path d="M60.7337 95.4878L54.8752 95.4878V101.346H60.7337V95.4878Z" fill="#07294D"/>
<path d="M66.5921 95.4878H60.7337V101.346H66.5921V95.4878Z" fill="#07294D"/>
<path d="M72.4505 95.4878L66.5921 95.4878V101.346H72.4505V95.4878Z" fill="#07294D"/>
<path d="M78.3089 95.4878H72.4505V101.346H78.3089V95.4878Z" fill="#07294D"/>
<path d="M90.0258 95.4878H84.1674V101.346H90.0258V95.4878Z" fill="#07294D"/>
<path d="M95.8842 95.4878L90.0258 95.4878V101.346H95.8842V95.4878Z" fill="#07294D"/>
<path d="M125.176 95.4878H119.318V101.346H125.176V95.4878Z" fill="#07294D"/>
<path d="M131.035 95.4878H125.176V101.346H131.035V95.4878Z" fill="#07294D"/>
<path d="M136.893 95.4878H131.035V101.346H136.893V95.4878Z" fill="#07294D"/>
<path d="M31.4415 101.346H25.5831V107.205H31.4415V101.346Z" fill="#07294D"/>
<path d="M37.2999 101.346H31.4415V107.205H37.2999V101.346Z" fill="#07294D"/>
<path d="M49.0168 101.346H43.1584V107.205H49.0168V101.346Z" fill="#07294D"/>
<path d="M54.8752 101.346H49.0168V107.205H54.8752V101.346Z" fill="#07294D"/>
<path d="M60.7337 101.346H54.8752V107.205H60.7337V101.346Z" fill="#07294D"/>
<path d="M84.1674 101.346H78.3089V107.205H84.1674V101.346Z" fill="#07294D"/>
<path d="M95.8842 101.346H90.0258V107.205H95.8842V101.346Z" fill="#07294D"/>
<path d="M107.601 101.346H101.743V107.205H107.601V101.346Z" fill="#07294D"/>
<path d="M113.46 101.346H107.601V107.205H113.46V101.346Z" fill="#07294D"/>
<path d="M119.318 101.346H113.46V107.205H119.318V101.346Z" fill="#07294D"/>
<path d="M125.176 101.346H119.318V107.205H125.176V101.346Z" fill="#07294D"/>
<path d="M131.035 101.346H125.176V107.205H131.035V101.346Z" fill="#07294D"/>
<path d="M136.893 101.346H131.035V107.205H136.893V101.346Z" fill="#07294D"/>
<path d="M154.468 101.346H148.61V107.205H154.468V101.346Z" fill="#07294D"/>
<path d="M60.7337 107.205H54.8752V113.063H60.7337V107.205Z" fill="#07294D"/>
<path d="M66.5921 107.205H60.7337V113.063H66.5921V107.205Z" fill="#07294D"/>
<path d="M72.4505 107.205H66.5921V113.063H72.4505V107.205Z" fill="#07294D"/>
<path d="M78.3089 107.205H72.4505V113.063H78.3089V107.205Z" fill="#07294D"/>
<path d="M95.8842 107.205H90.0258V113.063H95.8842V107.205Z" fill="#07294D"/>
<path d="M101.743 107.205H95.8842V113.063H101.743V107.205Z" fill="#07294D"/>
<path d="M107.601 107.205H101.743V113.063H107.601V107.205Z" fill="#07294D"/>
<path d="M131.035 107.205H125.176V113.063H131.035V107.205Z" fill="#07294D"/>
<path d="M136.893 107.205H131.035V113.063H136.893V107.205Z" fill="#07294D"/>
<path d="M148.61 107.205H142.752V113.063H148.61V107.205Z" fill="#07294D"/>
<path d="M154.468 107.205H148.61V113.063H154.468V107.205Z" fill="#07294D"/>
<path d="M13.8662 113.063H8.00781V118.922H13.8662V113.063Z" fill="#07294D"/>
<path d="M19.7247 113.063H13.8662V118.922H19.7247V113.063Z" fill="#07294D"/>
<path d="M25.5831 113.063H19.7247V118.922H25.5831V113.063Z" fill="#07294D"/>
<path d="M31.4415 113.063H25.5831V118.922H31.4415V113.063Z" fill="#07294D"/>
<path d="M37.2999 113.063H31.4415V118.922H37.2999V113.063Z" fill="#07294D"/>
<path d="M43.1584 113.063H37.2999V118.922H43.1584V113.063Z" fill="#07294D"/>
<path d="M49.0168 113.063H43.1584V118.922H49.0168V113.063Z" fill="#07294D"/>
<path d="M72.4505 113.063H66.5921V118.922H72.4505V113.063Z" fill="#07294D"/>
<path d="M84.1674 113.063H78.3089V118.922H84.1674V113.063Z" fill="#07294D"/>
<path d="M95.8842 113.063H90.0258V118.922H95.8842V113.063Z" fill="#07294D"/>
<path d="M101.743 113.063H95.8842V118.922H101.743V113.063Z" fill="#07294D"/>
<path d="M107.601 113.063H101.743V118.922H107.601V113.063Z" fill="#07294D"/>
<path d="M119.318 113.063H113.46V118.922H119.318V113.063Z" fill="#07294D"/>
<path d="M131.035 113.063H125.176V118.922H131.035V113.063Z" fill="#07294D"/>
<path d="M136.893 113.063H131.035V118.922H136.893V113.063Z" fill="#07294D"/>
<path d="M154.468 113.063H148.61V118.922H154.468V113.063Z" fill="#07294D"/>
<path d="M13.8662 118.922H8.00781V124.78H13.8662V118.922Z" fill="#07294D"/>
<path d="M49.0168 118.922H43.1584L43.1584 124.78H49.0168V118.922Z" fill="#07294D"/>
<path d="M66.5921 118.922H60.7337V124.78H66.5921V118.922Z" fill="#07294D"/>
<path d="M78.3089 118.922H72.4505V124.78H78.3089V118.922Z" fill="#07294D"/>
<path d="M84.1674 118.922H78.3089V124.78H84.1674V118.922Z" fill="#07294D"/>
<path d="M101.743 118.922H95.8842L95.8842 124.78H101.743V118.922Z" fill="#07294D"/>
<path d="M107.601 118.922H101.743V124.78H107.601V118.922Z" fill="#07294D"/>
<path d="M131.035 118.922H125.176V124.78H131.035V118.922Z" fill="#07294D"/>
<path d="M148.61 118.922H142.752V124.78H148.61V118.922Z" fill="#07294D"/>
<path d="M13.8662 124.78H8.00781V130.638H13.8662V124.78Z" fill="#07294D"/>
<path d="M25.5831 124.78H19.7247V130.638H25.5831V124.78Z" fill="#07294D"/>
<path d="M31.4415 124.78H25.5831V130.638H31.4415V124.78Z" fill="#07294D"/>
<path d="M37.2999 124.78H31.4415V130.638H37.2999V124.78Z" fill="#07294D"/>
<path d="M49.0168 124.78H43.1584V130.638H49.0168V124.78Z" fill="#07294D"/>
<path d="M60.7337 124.78H54.8752V130.638H60.7337V124.78Z" fill="#07294D"/>
<path d="M66.5921 124.78H60.7337V130.638H66.5921V124.78Z" fill="#07294D"/>
<path d="M72.4505 124.78H66.5921V130.638H72.4505V124.78Z" fill="#07294D"/>
<path d="M90.0258 124.78H84.1674V130.638H90.0258V124.78Z" fill="#07294D"/>
<path d="M95.8842 124.78H90.0258V130.638H95.8842L95.8842 124.78Z" fill="#07294D"/>
<path d="M107.601 124.78H101.743V130.638H107.601V124.78Z" fill="#07294D"/>
<path d="M113.46 124.78H107.601V130.638H113.46V124.78Z" fill="#07294D"/>
<path d="M119.318 124.78H113.46V130.638H119.318V124.78Z" fill="#07294D"/>
<path d="M125.176 124.78H119.318V130.638H125.176V124.78Z" fill="#07294D"/>
<path d="M131.035 124.78H125.176V130.638H131.035V124.78Z" fill="#07294D"/>
<path d="M142.752 124.78H136.893V130.638H142.752V124.78Z" fill="#07294D"/>
<path d="M148.61 124.78H142.752V130.638H148.61V124.78Z" fill="#07294D"/>
<path d="M13.8662 130.638H8.00781V136.497H13.8662V130.638Z" fill="#07294D"/>
<path d="M25.5831 130.638H19.7247V136.497H25.5831V130.638Z" fill="#07294D"/>
<path d="M31.4415 130.638H25.5831V136.497H31.4415V130.638Z" fill="#07294D"/>
<path d="M37.2999 130.638H31.4415V136.497H37.2999V130.638Z" fill="#07294D"/>
<path d="M49.0168 130.638H43.1584V136.497H49.0168V130.638Z" fill="#07294D"/>
<path d="M66.5921 130.638H60.7337V136.497H66.5921V130.638Z" fill="#07294D"/>
<path d="M72.4505 130.638H66.5921V136.497H72.4505V130.638Z" fill="#07294D"/>
<path d="M78.3089 130.638H72.4505V136.497H78.3089V130.638Z" fill="#07294D"/>
<path d="M95.8842 130.638H90.0258V136.497H95.8842V130.638Z" fill="#07294D"/>
<path d="M101.743 130.638H95.8842V136.497H101.743V130.638Z" fill="#07294D"/>
<path d="M142.752 130.638H136.893V136.497H142.752V130.638Z" fill="#07294D"/>
<path d="M154.468 130.638H148.61V136.497H154.468V130.638Z" fill="#07294D"/>
<path d="M13.8662 136.497H8.00781V142.355H13.8662V136.497Z" fill="#07294D"/>
<path d="M25.5831 136.497H19.7247V142.355H25.5831V136.497Z" fill="#07294D"/>
<path d="M31.4415 136.497H25.5831V142.355H31.4415V136.497Z" fill="#07294D"/>
<path d="M37.2999 136.497H31.4415V142.355H37.2999V136.497Z" fill="#07294D"/>
<path d="M49.0168 136.497H43.1584V142.355H49.0168V136.497Z" fill="#07294D"/>
<path d="M60.7337 136.497H54.8752V142.355H60.7337V136.497Z" fill="#07294D"/>
<path d="M66.5921 136.497H60.7337V142.355H66.5921V136.497Z" fill="#07294D"/>
<path d="M78.3089 136.497H72.4505V142.355H78.3089V136.497Z" fill="#07294D"/>
<path d="M95.8842 136.497H90.0258V142.355H95.8842V136.497Z" fill="#07294D"/>
<path d="M101.743 136.497H95.8842V142.355H101.743V136.497Z" fill="#07294D"/>
<path d="M107.601 136.497H101.743V142.355H107.601V136.497Z" fill="#07294D"/>
<path d="M113.46 136.497H107.601V142.355H113.46V136.497Z" fill="#07294D"/>
<path d="M142.752 136.497H136.893V142.355H142.752V136.497Z" fill="#07294D"/>
<path d="M148.61 136.497H142.752V142.355H148.61V136.497Z" fill="#07294D"/>
<path d="M13.8662 142.355H8.00781V148.214H13.8662V142.355Z" fill="#07294D"/>
<path d="M49.0168 142.355H43.1584V148.214H49.0168V142.355Z" fill="#07294D"/>
<path d="M60.7337 142.355H54.8752V148.214H60.7337V142.355Z" fill="#07294D"/>
<path d="M66.5921 142.355H60.7337V148.214H66.5921V142.355Z" fill="#07294D"/>
<path d="M78.3089 142.355H72.4505V148.214H78.3089V142.355Z" fill="#07294D"/>
<path d="M90.0258 142.355H84.1674V148.214H90.0258V142.355Z" fill="#07294D"/>
<path d="M95.8842 142.355H90.0258V148.214H95.8842V142.355Z" fill="#07294D"/>
<path d="M107.601 142.355H101.743V148.214H107.601V142.355Z" fill="#07294D"/>
<path d="M113.46 142.355H107.601V148.214H113.46V142.355Z" fill="#07294D"/>
<path d="M125.176 142.355H119.318V148.214H125.176V142.355Z" fill="#07294D"/>
<path d="M136.893 142.355H131.035V148.214H136.893V142.355Z" fill="#07294D"/>
<path d="M142.752 142.355H136.893V148.214H142.752V142.355Z" fill="#07294D"/>
<path d="M148.61 142.355H142.752V148.214H148.61V142.355Z" fill="#07294D"/>
<path d="M13.8662 148.214H8.00781V154.072H13.8662V148.214Z" fill="#07294D"/>
<path d="M19.7247 148.214H13.8662V154.072H19.7247V148.214Z" fill="#07294D"/>
<path d="M25.5831 148.214H19.7247V154.072H25.5831V148.214Z" fill="#07294D"/>
<path d="M31.4415 148.214H25.5831V154.072H31.4415V148.214Z" fill="#07294D"/>
<path d="M37.2999 148.214H31.4415V154.072H37.2999V148.214Z" fill="#07294D"/>
<path d="M43.1584 148.214H37.2999V154.072H43.1584L43.1584 148.214Z" fill="#07294D"/>
<path d="M49.0168 148.214H43.1584L43.1584 154.072H49.0168V148.214Z" fill="#07294D"/>
<path d="M60.7337 148.214H54.8752V154.072H60.7337V148.214Z" fill="#07294D"/>
<path d="M72.4505 148.214H66.5921V154.072H72.4505V148.214Z" fill="#07294D"/>
<path d="M78.3089 148.214H72.4505V154.072H78.3089V148.214Z" fill="#07294D"/>
<path d="M84.1674 148.214H78.3089V154.072H84.1674V148.214Z" fill="#07294D"/>
<path d="M95.8842 148.214H90.0258V154.072H95.8842V148.214Z" fill="#07294D"/>
<path d="M101.743 148.214H95.8842V154.072H101.743V148.214Z" fill="#07294D"/>
<path d="M119.318 148.214H113.46V154.072H119.318V148.214Z" fill="#07294D"/>
<path d="M131.035 148.214H125.176V154.072H131.035V148.214Z" fill="#07294D"/>
<path d="M136.893 148.214H131.035V154.072H136.893V148.214Z" fill="#07294D"/>
<path d="M142.752 148.214H136.893V154.072H142.752V148.214Z" fill="#07294D"/>
<path d="M148.61 148.214H142.752V154.072H148.61V148.214Z" fill="#07294D"/>
<path d="M154.468 148.214H148.61V154.072H154.468V148.214Z" fill="#07294D"/>
</g>
<defs>
<clipPath id="clip0_4288_1862">
<rect width="161.432" height="161.432" fill="white" transform="translate(0.522461 0.125977)"/>
</clipPath>
</defs>
</svg>
