<svg width="23" height="24" viewBox="0 0 23 24" fill="none" xmlns="http://www.w3.org/2000/svg">
<path d="M10.375 13.125V16.5C10.375 16.8188 10.4828 17.0859 10.6984 17.3016C10.9141 17.5172 11.1812 17.625 11.5 17.625C11.8188 17.625 12.0859 17.5172 12.3016 17.3016C12.5172 17.0859 12.625 16.8188 12.625 16.5V13.125H16C16.3188 13.125 16.5859 13.0172 16.8016 12.8016C17.0172 12.5859 17.125 12.3188 17.125 12C17.125 11.6812 17.0172 11.4141 16.8016 11.1984C16.5859 10.9828 16.3188 10.875 16 10.875H12.625V7.5C12.625 7.18125 12.5172 6.91406 12.3016 6.69844C12.0859 6.48281 11.8188 6.375 11.5 6.375C11.1812 6.375 10.9141 6.48281 10.6984 6.69844C10.4828 6.91406 10.375 7.18125 10.375 7.5V10.875H7C6.68125 10.875 6.41406 10.9828 6.19844 11.1984C5.98281 11.4141 5.875 11.6812 5.875 12C5.875 12.3188 5.98281 12.5859 6.19844 12.8016C6.41406 13.0172 6.68125 13.125 7 13.125H10.375ZM11.5 23.25C9.94375 23.25 8.48125 22.9547 7.1125 22.3641C5.74375 21.7734 4.55312 20.9719 3.54062 19.9594C2.52812 18.9469 1.72656 17.7563 1.13594 16.3875C0.545312 15.0188 0.25 13.5562 0.25 12C0.25 10.4438 0.545312 8.98125 1.13594 7.6125C1.72656 6.24375 2.52812 5.05312 3.54062 4.04062C4.55312 3.02812 5.74375 2.22656 7.1125 1.63594C8.48125 1.04531 9.94375 0.75 11.5 0.75C13.0562 0.75 14.5188 1.04531 15.8875 1.63594C17.2563 2.22656 18.4469 3.02812 19.4594 4.04062C20.4719 5.05312 21.2734 6.24375 21.8641 7.6125C22.4547 8.98125 22.75 10.4438 22.75 12C22.75 13.5562 22.4547 15.0188 21.8641 16.3875C21.2734 17.7563 20.4719 18.9469 19.4594 19.9594C18.4469 20.9719 17.2563 21.7734 15.8875 22.3641C14.5188 22.9547 13.0562 23.25 11.5 23.25ZM11.5 21C14.0125 21 16.1406 20.1281 17.8844 18.3844C19.6281 16.6406 20.5 14.5125 20.5 12C20.5 9.4875 19.6281 7.35938 17.8844 5.61563C16.1406 3.87188 14.0125 3 11.5 3C8.9875 3 6.85938 3.87188 5.11563 5.61563C3.37188 7.35938 2.5 9.4875 2.5 12C2.5 14.5125 3.37188 16.6406 5.11563 18.3844C6.85938 20.1281 8.9875 21 11.5 21Z" fill="#07294D"/>
</svg>
