<svg width="23" height="24" viewBox="0 0 23 24" fill="none" xmlns="http://www.w3.org/2000/svg">
<path d="M10.375 13.1914V16.5664C10.375 16.8852 10.4828 17.1523 10.6984 17.368C10.9141 17.5836 11.1812 17.6914 11.5 17.6914C11.8188 17.6914 12.0859 17.5836 12.3016 17.368C12.5172 17.1523 12.625 16.8852 12.625 16.5664V13.1914H16C16.3188 13.1914 16.5859 13.0836 16.8016 12.868C17.0172 12.6523 17.125 12.3852 17.125 12.0664C17.125 11.7477 17.0172 11.4805 16.8016 11.2648C16.5859 11.0492 16.3188 10.9414 16 10.9414H12.625V7.56641C12.625 7.24766 12.5172 6.98047 12.3016 6.76484C12.0859 6.54922 11.8188 6.44141 11.5 6.44141C11.1812 6.44141 10.9141 6.54922 10.6984 6.76484C10.4828 6.98047 10.375 7.24766 10.375 7.56641V10.9414H7C6.68125 10.9414 6.41406 11.0492 6.19844 11.2648C5.98281 11.4805 5.875 11.7477 5.875 12.0664C5.875 12.3852 5.98281 12.6523 6.19844 12.868C6.41406 13.0836 6.68125 13.1914 7 13.1914H10.375ZM11.5 23.3164C9.94375 23.3164 8.48125 23.0211 7.1125 22.4305C5.74375 21.8398 4.55312 21.0383 3.54062 20.0258C2.52812 19.0133 1.72656 17.8227 1.13594 16.4539C0.545312 15.0852 0.25 13.6227 0.25 12.0664C0.25 10.5102 0.545312 9.04766 1.13594 7.67891C1.72656 6.31016 2.52812 5.11953 3.54062 4.10703C4.55312 3.09453 5.74375 2.29297 7.1125 1.70234C8.48125 1.11172 9.94375 0.816406 11.5 0.816406C13.0562 0.816406 14.5188 1.11172 15.8875 1.70234C17.2563 2.29297 18.4469 3.09453 19.4594 4.10703C20.4719 5.11953 21.2734 6.31016 21.8641 7.67891C22.4547 9.04766 22.75 10.5102 22.75 12.0664C22.75 13.6227 22.4547 15.0852 21.8641 16.4539C21.2734 17.8227 20.4719 19.0133 19.4594 20.0258C18.4469 21.0383 17.2563 21.8398 15.8875 22.4305C14.5188 23.0211 13.0562 23.3164 11.5 23.3164ZM11.5 21.0664C14.0125 21.0664 16.1406 20.1945 17.8844 18.4508C19.6281 16.707 20.5 14.5789 20.5 12.0664C20.5 9.55391 19.6281 7.42578 17.8844 5.68203C16.1406 3.93828 14.0125 3.06641 11.5 3.06641C8.9875 3.06641 6.85938 3.93828 5.11563 5.68203C3.37188 7.42578 2.5 9.55391 2.5 12.0664C2.5 14.5789 3.37188 16.707 5.11563 18.4508C6.85938 20.1945 8.9875 21.0664 11.5 21.0664Z" fill="#F4F4F4"/>
</svg>
