<svg width="30" height="32" viewBox="0 0 30 32" fill="none" xmlns="http://www.w3.org/2000/svg">
<path d="M3.17255 3.17426V12.419V12.3816V27.1138V3.17426ZM6.53905 17.7624H11.8476C12.0339 17.3328 12.2507 16.9333 12.4981 16.5639C12.7455 16.1946 13.0237 15.846 13.3326 15.5181H6.53905V17.7624ZM6.53905 23.7473H11.0737C10.9874 23.3732 10.9303 22.9992 10.9024 22.6251C10.8747 22.2511 10.8762 21.877 10.9069 21.503H6.53905V23.7473ZM3.63302 29.3581C2.87717 29.3581 2.23742 29.0963 1.71374 28.5726C1.19006 28.0489 0.928223 27.4092 0.928223 26.6533V3.63473C0.928223 2.87888 1.19006 2.23913 1.71374 1.71545C2.23742 1.19177 2.87717 0.929932 3.63302 0.929932H15.5164L23.3715 8.78509V12.9139C23.0127 12.772 22.6462 12.6642 22.2722 12.5904C21.8981 12.5165 21.5165 12.4594 21.1272 12.419V9.90726H14.3942V3.17426H3.63302C3.51781 3.17426 3.41232 3.22227 3.31657 3.31827C3.22056 3.41403 3.17255 3.51952 3.17255 3.63473V26.6533C3.17255 26.7685 3.22056 26.874 3.31657 26.9698C3.41232 27.0658 3.51781 27.1138 3.63302 27.1138H12.4607C12.7542 27.5589 13.0831 27.9699 13.4475 28.3467C13.8121 28.7237 14.2072 29.0609 14.6329 29.3581H3.63302ZM20.3791 25.8476C21.4935 25.8476 22.4339 25.4645 23.2002 24.6981C23.9665 23.9318 24.3497 22.9915 24.3497 21.877C24.3497 20.7626 23.9665 19.8222 23.2002 19.0559C22.4339 18.2896 21.4935 17.9064 20.3791 17.9064C19.2647 17.9064 18.3243 18.2896 17.558 19.0559C16.7917 19.8222 16.4085 20.7626 16.4085 21.877C16.4085 22.9915 16.7917 23.9318 17.558 24.6981C18.3243 25.4645 19.2647 25.8476 20.3791 25.8476ZM28.0098 31.0702L23.9124 26.9728C23.4079 27.3411 22.8551 27.6198 22.2539 27.8088C21.6524 27.9976 21.0275 28.092 20.3791 28.092C18.6527 28.092 17.1853 27.4877 15.9768 26.2793C14.7684 25.0708 14.1642 23.6034 14.1642 21.877C14.1642 20.1506 14.7684 18.6832 15.9768 17.4748C17.1853 16.2663 18.6527 15.6621 20.3791 15.6621C22.1055 15.6621 23.5729 16.2663 24.7813 17.4748C25.9898 18.6832 26.594 20.1506 26.594 21.877C26.594 22.5254 26.4996 23.1503 26.3109 23.7518C26.1218 24.353 25.8432 24.9059 25.4748 25.4104L29.5723 29.5078L28.0098 31.0702Z" fill="#1C1B1F"/>
</svg>
