<svg width="27" height="26" viewBox="0 0 27 26" fill="none" xmlns="http://www.w3.org/2000/svg">
<path d="M18.0006 11.0003L23.1596 5.81809L22.2274 4.88595L18.0006 9.11277L15.8685 6.99487L14.9364 7.9502L18.0006 11.0003ZM0.345215 25.3438V23.0994H17.5518V25.3438H0.345215ZM19.0502 14.8702C17.0844 14.8702 15.4082 14.1775 14.0214 12.792C12.6344 11.4065 11.9409 9.73096 11.9409 7.76542C11.9409 5.79964 12.6337 4.12337 14.0192 2.73662C15.4047 1.34963 17.0802 0.656128 19.0457 0.656128C21.0115 0.656128 22.6878 1.34888 24.0745 2.73438C25.4615 4.11988 26.155 5.7954 26.155 7.76093C26.155 9.72672 25.4623 11.403 24.0768 12.7897C22.6913 14.1767 21.0158 14.8702 19.0502 14.8702ZM0.345215 13.374V11.1297H9.0809C9.21706 11.5441 9.37092 11.9359 9.54249 12.305C9.7143 12.6743 9.91916 13.0306 10.1571 13.374H0.345215ZM0.345215 19.3589V17.1146H14.3091C14.7963 17.3774 15.3114 17.6008 15.8543 17.7849C16.3972 17.9692 16.963 18.1016 17.5518 18.1821V19.3589H0.345215Z" fill="#1C1B1F"/>
</svg>
