<svg width="16" height="40" viewBox="0 0 16 40" fill="none" xmlns="http://www.w3.org/2000/svg">
<path d="M7 38.2861C7 38.8384 7.44772 39.2861 8 39.2861C8.55228 39.2861 9 38.8384 9 38.2861L7 38.2861ZM8.70711 0.579026C8.31658 0.188502 7.68342 0.188502 7.29289 0.579026L0.928934 6.94299C0.538409 7.33351 0.538409 7.96668 0.928933 8.3572C1.31946 8.74772 1.95262 8.74772 2.34315 8.3572L8 2.70035L13.6569 8.3572C14.0474 8.74773 14.6805 8.74773 15.0711 8.3572C15.4616 7.96668 15.4616 7.33351 15.0711 6.94299L8.70711 0.579026ZM9 38.2861L9 1.28613L7 1.28613L7 38.2861L9 38.2861Z" fill="#07294D"/>
</svg>
