<svg width="37" height="37" viewBox="0 0 37 37" fill="none" xmlns="http://www.w3.org/2000/svg">
<mask id="mask0_4471_9240" style="mask-type:alpha" maskUnits="userSpaceOnUse" x="0" y="0" width="37" height="37">
<rect x="0.5" y="0.5" width="36" height="36" fill="#D9D9D9"/>
</mask>
<g mask="url(#mask0_4471_9240)">
<path d="M9.81903 30.2587C9.4891 30.4001 9.12207 30.1581 9.12207 29.7991V9.12204C9.12207 8.3852 9.38443 7.75442 9.90915 7.22971C10.4339 6.70499 11.0646 6.44263 11.8015 6.44263H25.1986C25.9354 6.44263 26.5662 6.70499 27.0909 7.22971C27.6156 7.75442 27.878 8.3852 27.878 9.12204V29.7991C27.878 30.1581 27.511 30.4001 27.181 30.2587L18.697 26.6227C18.5712 26.5688 18.4288 26.5688 18.3031 26.6227L9.81903 30.2587ZM11.8015 25.712C11.8015 26.0712 12.169 26.3132 12.499 26.1713L18.3025 23.6758C18.4286 23.6216 18.5714 23.6216 18.6975 23.6758L24.5011 26.1713C24.8311 26.3132 25.1986 26.0712 25.1986 25.712V9.62204C25.1986 9.3459 24.9747 9.12204 24.6986 9.12204H12.3015C12.0253 9.12204 11.8015 9.3459 11.8015 9.62204V25.712Z" fill="#F4F4F4"/>
</g>
</svg>
