<svg width="26" height="30" viewBox="0 0 26 30" fill="none" xmlns="http://www.w3.org/2000/svg">
<path d="M3.23702 29.3003C2.48118 29.3003 1.84142 29.0385 1.31774 28.5148C0.794065 27.9911 0.532227 27.3514 0.532227 26.5956V6.56938C0.532227 5.81354 0.794065 5.17378 1.31774 4.6501C1.84142 4.12643 2.48118 3.86459 3.23702 3.86459H5.30854V0.699707H7.61047V3.86459H18.9473V0.699707H21.1917V3.86459H23.2632C24.019 3.86459 24.6588 4.12643 25.1825 4.6501C25.7061 5.17378 25.968 5.81354 25.968 6.56938V26.5956C25.968 27.3514 25.7061 27.9911 25.1825 28.5148C24.6588 29.0385 24.019 29.3003 23.2632 29.3003H3.23702ZM3.23702 27.056H23.2632C23.3784 27.056 23.4839 27.008 23.5796 26.912C23.6756 26.8162 23.7236 26.7108 23.7236 26.5956V12.5543H2.77656V26.5956C2.77656 26.7108 2.82456 26.8162 2.92057 26.912C3.01633 27.008 3.12181 27.056 3.23702 27.056ZM2.77656 10.3099H23.7236V6.56938C23.7236 6.45417 23.6756 6.34869 23.5796 6.25293C23.4839 6.15692 23.3784 6.10892 23.2632 6.10892H3.23702C3.12181 6.10892 3.01633 6.15692 2.92057 6.25293C2.82456 6.34869 2.77656 6.45417 2.77656 6.56938V10.3099ZM13.2501 18.1939C12.8838 18.1939 12.5716 18.0648 12.3135 17.8067C12.0556 17.5489 11.9267 17.2367 11.9267 16.8701C11.9267 16.5038 12.0556 16.1916 12.3135 15.9335C12.5716 15.6756 12.8838 15.5467 13.2501 15.5467C13.6164 15.5467 13.9286 15.6756 14.1867 15.9335C14.4446 16.1916 14.5735 16.5038 14.5735 16.8701C14.5735 17.2367 14.4446 17.5489 14.1867 17.8067C13.9286 18.0648 13.6164 18.1939 13.2501 18.1939ZM7.26522 18.1939C6.8989 18.1939 6.58668 18.0648 6.32859 17.8067C6.07074 17.5489 5.94181 17.2367 5.94181 16.8701C5.94181 16.5038 6.07074 16.1916 6.32859 15.9335C6.58668 15.6756 6.8989 15.5467 7.26522 15.5467C7.63155 15.5467 7.94376 15.6756 8.20186 15.9335C8.4597 16.1916 8.58863 16.5038 8.58863 16.8701C8.58863 17.2367 8.4597 17.5489 8.20186 17.8067C7.94376 18.0648 7.63155 18.1939 7.26522 18.1939ZM19.235 18.1939C18.8687 18.1939 18.5565 18.0648 18.2984 17.8067C18.0405 17.5489 17.9116 17.2367 17.9116 16.8701C17.9116 16.5038 18.0405 16.1916 18.2984 15.9335C18.5565 15.6756 18.8687 15.5467 19.235 15.5467C19.6013 15.5467 19.9135 15.6756 20.1716 15.9335C20.4295 16.1916 20.5584 16.5038 20.5584 16.8701C20.5584 17.2367 20.4295 17.5489 20.1716 17.8067C19.9135 18.0648 19.6013 18.1939 19.235 18.1939ZM13.2501 24.0636C12.8838 24.0636 12.5716 23.9345 12.3135 23.6764C12.0556 23.4186 11.9267 23.1065 11.9267 22.7402C11.9267 22.3736 12.0556 22.0614 12.3135 21.8035C12.5716 21.5454 12.8838 21.4164 13.2501 21.4164C13.6164 21.4164 13.9286 21.5454 14.1867 21.8035C14.4446 22.0614 14.5735 22.3736 14.5735 22.7402C14.5735 23.1065 14.4446 23.4186 14.1867 23.6764C13.9286 23.9345 13.6164 24.0636 13.2501 24.0636ZM7.26522 24.0636C6.8989 24.0636 6.58668 23.9345 6.32859 23.6764C6.07074 23.4186 5.94181 23.1065 5.94181 22.7402C5.94181 22.3736 6.07074 22.0614 6.32859 21.8035C6.58668 21.5454 6.8989 21.4164 7.26522 21.4164C7.63155 21.4164 7.94376 21.5454 8.20186 21.8035C8.4597 22.0614 8.58863 22.3736 8.58863 22.7402C8.58863 23.1065 8.4597 23.4186 8.20186 23.6764C7.94376 23.9345 7.63155 24.0636 7.26522 24.0636ZM19.235 24.0636C18.8687 24.0636 18.5565 23.9345 18.2984 23.6764C18.0405 23.4186 17.9116 23.1065 17.9116 22.7402C17.9116 22.3736 18.0405 22.0614 18.2984 21.8035C18.5565 21.5454 18.8687 21.4164 19.235 21.4164C19.6013 21.4164 19.9135 21.5454 20.1716 21.8035C20.4295 22.0614 20.5584 22.3736 20.5584 22.7402C20.5584 23.1065 20.4295 23.4186 20.1716 23.6764C19.9135 23.9345 19.6013 24.0636 19.235 24.0636Z" fill="#1C1B1F"/>
</svg>
