<svg width="23" height="22" viewBox="0 0 23 22" fill="none" xmlns="http://www.w3.org/2000/svg">
<path d="M4.56226 18.2928L1.97476 20.8803C1.61851 21.2366 1.21069 21.3163 0.751318 21.1194C0.291943 20.9225 0.0622559 20.571 0.0622559 20.0647V2.54285C0.0622559 1.9241 0.282568 1.39441 0.723193 0.953784C1.16382 0.513159 1.69351 0.292847 2.31226 0.292847H20.3123C20.931 0.292847 21.4607 0.513159 21.9013 0.953784C22.3419 1.39441 22.5623 1.9241 22.5623 2.54285V16.0428C22.5623 16.6616 22.3419 17.1913 21.9013 17.6319C21.4607 18.0725 20.931 18.2928 20.3123 18.2928H4.56226ZM3.60601 16.0428H20.3123V2.54285H2.31226V17.3085L3.60601 16.0428ZM5.68726 13.7928H12.4373C12.756 13.7928 13.0232 13.685 13.2388 13.4694C13.4544 13.2538 13.5623 12.9866 13.5623 12.6678C13.5623 12.3491 13.4544 12.0819 13.2388 11.8663C13.0232 11.6507 12.756 11.5428 12.4373 11.5428H5.68726C5.36851 11.5428 5.10132 11.6507 4.88569 11.8663C4.67007 12.0819 4.56226 12.3491 4.56226 12.6678C4.56226 12.9866 4.67007 13.2538 4.88569 13.4694C5.10132 13.685 5.36851 13.7928 5.68726 13.7928ZM5.68726 10.4178H16.9373C17.256 10.4178 17.5232 10.31 17.7388 10.0944C17.9544 9.87879 18.0623 9.6116 18.0623 9.29285C18.0623 8.9741 17.9544 8.70691 17.7388 8.49128C17.5232 8.27566 17.256 8.16785 16.9373 8.16785H5.68726C5.36851 8.16785 5.10132 8.27566 4.88569 8.49128C4.67007 8.70691 4.56226 8.9741 4.56226 9.29285C4.56226 9.6116 4.67007 9.87879 4.88569 10.0944C5.10132 10.31 5.36851 10.4178 5.68726 10.4178ZM5.68726 7.04285H16.9373C17.256 7.04285 17.5232 6.93503 17.7388 6.71941C17.9544 6.50378 18.0623 6.2366 18.0623 5.91785C18.0623 5.5991 17.9544 5.33191 17.7388 5.11628C17.5232 4.90066 17.256 4.79285 16.9373 4.79285H5.68726C5.36851 4.79285 5.10132 4.90066 4.88569 5.11628C4.67007 5.33191 4.56226 5.5991 4.56226 5.91785C4.56226 6.2366 4.67007 6.50378 4.88569 6.71941C5.10132 6.93503 5.36851 7.04285 5.68726 7.04285Z" fill="#333333"/>
</svg>
