<svg width="20" height="19" viewBox="0 0 20 19" fill="none" xmlns="http://www.w3.org/2000/svg">
<path d="M3.98828 11.3076H11.4883V9.80762H3.98828V11.3076ZM3.98828 8.30762H15.4883V6.80762H3.98828V8.30762ZM3.98828 5.30762H15.4883V3.80762H3.98828V5.30762ZM0.238281 18.5961V1.86537C0.238281 1.3602 0.413281 0.932617 0.763281 0.582617C1.11328 0.232617 1.54086 0.0576172 2.04603 0.0576172H17.4305C17.9357 0.0576172 18.3633 0.232617 18.7133 0.582617C19.0633 0.932617 19.2383 1.3602 19.2383 1.86537V13.2499C19.2383 13.755 19.0633 14.1826 18.7133 14.5326C18.3633 14.8826 17.9357 15.0576 17.4305 15.0576H3.77678L0.238281 18.5961ZM3.13828 13.5576H17.4305C17.5075 13.5576 17.578 13.5255 17.642 13.4614C17.7062 13.3974 17.7383 13.3269 17.7383 13.2499V1.86537C17.7383 1.78837 17.7062 1.71787 17.642 1.65387C17.578 1.5897 17.5075 1.55762 17.4305 1.55762H2.04603C1.96903 1.55762 1.89853 1.5897 1.83453 1.65387C1.77036 1.71787 1.73828 1.78837 1.73828 1.86537V14.9424L3.13828 13.5576Z" fill="#07294D"/>
</svg>
