<svg width="25" height="27" viewBox="0 0 25 27" fill="none" xmlns="http://www.w3.org/2000/svg">
<path d="M3.28283 26.9323C2.57883 26.9323 1.97742 26.683 1.4786 26.1844C0.980007 25.6856 0.730713 25.0842 0.730713 24.3802V5.48441C0.730713 4.78041 0.980007 4.179 1.4786 3.68018C1.97742 3.18159 2.57883 2.93229 3.28283 2.93229H9.56518C9.65389 2.14853 9.99601 1.48206 10.5915 0.932881C11.1868 0.38347 11.8999 0.108765 12.7307 0.108765C13.5705 0.108765 14.2881 0.38347 14.8837 0.932881C15.4792 1.48206 15.8167 2.14853 15.8962 2.93229H22.1786C22.8826 2.93229 23.484 3.18159 23.9828 3.68018C24.4814 4.179 24.7307 4.78041 24.7307 5.48441V24.3802C24.7307 25.0842 24.4814 25.6856 23.9828 26.1844C23.484 26.683 22.8826 26.9323 22.1786 26.9323H3.28283ZM3.28283 24.8146H22.1786C22.2873 24.8146 22.3868 24.7694 22.4772 24.6788C22.5678 24.5884 22.6131 24.4889 22.6131 24.3802V5.48441C22.6131 5.37571 22.5678 5.27618 22.4772 5.18582C22.3868 5.09523 22.2873 5.04994 22.1786 5.04994H3.28283C3.17412 5.04994 3.0746 5.09523 2.98424 5.18582C2.89365 5.27618 2.84836 5.37571 2.84836 5.48441V24.3802C2.84836 24.4889 2.89365 24.5884 2.98424 24.6788C3.0746 24.7694 3.17412 24.8146 3.28283 24.8146ZM6.02483 21.4751H15.2013V19.3578H6.02483V21.4751ZM6.02483 15.9911H19.4366V13.8735H6.02483V15.9911ZM6.02483 10.5068H19.4366V8.38947H6.02483V10.5068ZM12.7307 4.127C13.0366 4.127 13.2895 4.027 13.4895 3.827C13.6895 3.627 13.7895 3.37406 13.7895 3.06818C13.7895 2.76229 13.6895 2.50935 13.4895 2.30935C13.2895 2.10935 13.0366 2.00935 12.7307 2.00935C12.4248 2.00935 12.1719 2.10935 11.9719 2.30935C11.7719 2.50935 11.6719 2.76229 11.6719 3.06818C11.6719 3.37406 11.7719 3.627 11.9719 3.827C12.1719 4.027 12.4248 4.127 12.7307 4.127Z" fill="#1C1B1F"/>
</svg>
