<svg width="25" height="26" viewBox="0 0 25 26" fill="none" xmlns="http://www.w3.org/2000/svg">
<path d="M3.72089 6.7681C4.04704 7.09697 4.29262 7.49688 4.43839 7.93651L4.90816 9.37838C4.94704 9.48994 5.01968 9.58663 5.11599 9.65506C5.2123 9.72348 5.32751 9.76023 5.44565 9.76023C5.56379 9.76023 5.679 9.72348 5.77531 9.65506C5.87161 9.58663 5.94425 9.48994 5.98313 9.37838L6.4529 7.93651C6.59898 7.49798 6.84525 7.09952 7.17216 6.77276C7.49908 6.44599 7.89765 6.1999 8.33625 6.05402L9.77983 5.58511C9.891 5.54583 9.98724 5.47305 10.0553 5.37679C10.1234 5.28053 10.16 5.16553 10.16 5.04763C10.16 4.92973 10.1234 4.81473 10.0553 4.71847C9.98724 4.62221 9.891 4.54942 9.77983 4.51014L9.75069 4.50328L8.3071 4.03437C7.8685 3.88849 7.46993 3.64241 7.14302 3.31564C6.8161 2.98887 6.56983 2.59042 6.42375 2.15188L5.95484 0.710011C5.91574 0.598552 5.84298 0.501992 5.74661 0.433679C5.65025 0.365367 5.53505 0.328674 5.41693 0.328674C5.29881 0.328674 5.18361 0.365367 5.08724 0.433679C4.99088 0.501992 4.91812 0.598552 4.87901 0.710011L4.4101 2.15188L4.3981 2.18789C4.2514 2.61548 4.00917 3.00401 3.68981 3.32397C3.37045 3.64392 2.98237 3.88687 2.55505 4.03437L1.11146 4.50328C1.0003 4.54257 0.904049 4.61535 0.835972 4.71161C0.767896 4.80787 0.73134 4.92287 0.73134 5.04077C0.73134 5.15867 0.767896 5.27367 0.835972 5.36993C0.904049 5.46619 1.0003 5.53897 1.11146 5.57826L2.55505 6.04631C2.99481 6.19289 3.39428 6.44064 3.72089 6.7681ZM11.7215 10.9231L12.5084 11.1786L12.5247 11.182C12.5856 11.2031 12.6384 11.2427 12.6758 11.2953C12.7132 11.3478 12.7333 11.4107 12.7333 11.4752C12.7333 11.5397 12.7132 11.6026 12.6758 11.6551C12.6384 11.7076 12.5856 11.7472 12.5247 11.7684L11.7369 12.0247C11.498 12.1046 11.281 12.2389 11.1028 12.417C10.9246 12.595 10.7901 12.812 10.7099 13.0508L10.4536 13.8377C10.4321 13.8983 10.3923 13.9506 10.3399 13.9877C10.2874 14.0247 10.2247 14.0446 10.1604 14.0446C10.0962 14.0446 10.0335 14.0247 9.98104 13.9877C9.92855 13.9506 9.88881 13.8983 9.86727 13.8377L9.61096 13.0508C9.53195 12.8109 9.39794 12.5927 9.21963 12.4138C9.04131 12.2349 8.82364 12.1002 8.58399 12.0204L7.79619 11.7649C7.73527 11.7438 7.68244 11.7042 7.64506 11.6517C7.60768 11.5991 7.58759 11.5362 7.58759 11.4718C7.58759 11.4073 7.60768 11.3444 7.64506 11.2919C7.68244 11.2393 7.73527 11.1997 7.79619 11.1786L8.58399 10.9223C8.82 10.8403 9.03399 10.7051 9.2094 10.5272C9.3848 10.3492 9.51692 10.1333 9.59553 9.89616L9.85184 9.10921C9.87338 9.04868 9.91312 8.99631 9.96561 8.95927C10.0181 8.92223 10.0808 8.90234 10.145 8.90234C10.2093 8.90234 10.2719 8.92223 10.3244 8.95927C10.3769 8.99631 10.4167 9.04868 10.4382 9.10921L10.6936 9.89616C10.7733 10.1354 10.9077 10.3527 11.0861 10.5308C11.2646 10.709 11.4821 10.8439 11.7215 10.9231ZM18.7877 3.62719L12.5539 9.86187L12.1492 9.73157C12.1058 9.71155 12.0654 9.68558 12.0292 9.65442C11.9927 9.61902 11.9661 9.57469 11.9521 9.52583L11.6949 8.74574C11.6574 8.63927 11.6094 8.53676 11.5517 8.43971L17.5755 2.41505C17.9647 2.02583 18.4267 1.71707 18.9352 1.5064C19.4437 1.29573 19.9887 1.18728 20.5391 1.18724C21.0895 1.1872 21.6346 1.29557 22.1431 1.50617C22.6516 1.71676 23.1137 2.02546 23.5029 2.41462C23.8921 2.80379 24.2009 3.26581 24.4116 3.77431C24.6222 4.2828 24.7307 4.82781 24.7307 5.37822C24.7308 5.92862 24.6224 6.47365 24.4118 6.98217C24.2012 7.4907 23.8925 7.95276 23.5033 8.34199L22.731 9.11436L22.9667 9.35095C23.2453 9.62956 23.4664 9.96033 23.6172 10.3244C23.768 10.6884 23.8456 11.0786 23.8456 11.4726C23.8456 11.8666 23.768 12.2568 23.6172 12.6209C23.4664 12.9849 23.2453 13.3157 22.9667 13.5943L21.0533 15.5076C20.8917 15.6638 20.6751 15.7502 20.4504 15.7482C20.2256 15.7463 20.0106 15.6561 19.8517 15.4972C19.6927 15.3382 19.6026 15.1232 19.6006 14.8985C19.5987 14.6737 19.6851 14.4572 19.8412 14.2955L21.7546 12.3821C21.8741 12.2627 21.9688 12.1209 22.0335 11.9649C22.0982 11.8088 22.1315 11.6415 22.1315 11.4726C22.1315 11.3037 22.0982 11.1364 22.0335 10.9803C21.9688 10.8243 21.8741 10.6825 21.7546 10.5631L21.518 10.3273L8.67828 23.1687C8.2458 23.6006 7.69777 23.8983 7.10011 24.026L1.7681 25.1695C1.62815 25.1996 1.4829 25.1942 1.3456 25.1537C1.20829 25.1132 1.08331 25.039 0.982047 24.9379C0.880786 24.8367 0.806473 24.7118 0.765889 24.5745C0.725304 24.4372 0.719741 24.292 0.749705 24.152L1.8924 18.8191C2.02077 18.2216 2.31905 17.6738 2.75135 17.2418L7.13869 12.8528C7.21127 12.8928 7.28699 12.9271 7.36586 12.9556L8.22309 13.2214C8.26881 13.2414 8.30882 13.27 8.34311 13.3071C8.38103 13.3413 8.40788 13.3861 8.42026 13.4357L8.55913 13.8574L3.96348 18.4531C3.76489 18.6518 3.62795 18.9036 3.56916 19.1783L2.70249 23.2176L6.74007 22.3518C7.01477 22.293 7.26661 22.1561 7.4653 21.9575L22.2903 7.13071C22.7374 6.66269 22.9835 6.03831 22.976 5.39115C22.9686 4.744 22.7082 4.12544 22.2506 3.6678C21.7929 3.21016 21.1744 2.94977 20.5272 2.94234C19.8801 2.93491 19.2557 3.18017 18.7877 3.62719Z" fill="black"/>
</svg>
