<svg width="21" height="22" viewBox="0 0 21 22" fill="none" xmlns="http://www.w3.org/2000/svg">
<path d="M2.625 18.875H4.22812L15.225 7.87812L13.6219 6.275L2.625 17.2719V18.875ZM1.5 21.125C1.18125 21.125 0.914062 21.0172 0.698437 20.8016C0.482812 20.5859 0.375 20.3188 0.375 20V17.2719C0.375 16.9719 0.43125 16.6859 0.54375 16.4141C0.65625 16.1422 0.815625 15.9031 1.02187 15.6969L15.225 1.52187C15.45 1.31562 15.6984 1.15625 15.9703 1.04375C16.2422 0.93125 16.5281 0.875 16.8281 0.875C17.1281 0.875 17.4188 0.93125 17.7 1.04375C17.9813 1.15625 18.225 1.325 18.4313 1.55L19.9781 3.125C20.2031 3.33125 20.3672 3.575 20.4703 3.85625C20.5734 4.1375 20.625 4.41875 20.625 4.7C20.625 5 20.5734 5.28594 20.4703 5.55781C20.3672 5.82969 20.2031 6.07813 19.9781 6.30313L5.80313 20.4781C5.59688 20.6844 5.35781 20.8438 5.08594 20.9563C4.81406 21.0688 4.52812 21.125 4.22812 21.125H1.5ZM14.4094 7.09063L13.6219 6.275L15.225 7.87812L14.4094 7.09063Z" fill="#07294D"/>
</svg>
