<svg width="36" height="36" viewBox="0 0 36 36" fill="none" xmlns="http://www.w3.org/2000/svg">
<path d="M17.6921 28.3644C18.2228 28.3644 18.6711 28.1813 19.037 27.8151C19.4028 27.4486 19.5858 26.9998 19.5858 26.4688C19.5858 25.9381 19.4025 25.4898 19.036 25.1239C18.6695 24.7584 18.2209 24.5756 17.6902 24.5756C17.1595 24.5756 16.7112 24.7588 16.3453 25.1253C15.9794 25.4918 15.7965 25.9404 15.7965 26.4711C15.7965 27.0019 15.9797 27.4502 16.3462 27.816C16.7127 28.1816 17.1614 28.3644 17.6921 28.3644ZM16.3755 21.7083H18.9923C19.0162 20.7934 19.1502 20.0624 19.3943 19.5152C19.6388 18.9684 20.2316 18.2435 21.1728 17.3404C21.9904 16.5228 22.6165 15.7678 23.0512 15.0753C23.4862 14.3832 23.7037 13.5658 23.7037 12.623C23.7037 11.0228 23.1288 9.7729 21.9791 8.87321C20.8291 7.97382 19.4688 7.52413 17.8984 7.52413C16.3469 7.52413 15.063 7.93819 14.0468 8.76632C13.0303 9.59445 12.3052 10.5697 11.8715 11.6922L14.2592 12.65C14.4857 12.0328 14.8729 11.4316 15.421 10.8464C15.969 10.2615 16.7829 9.96901 17.8626 9.96901C18.9612 9.96901 19.7732 10.2698 20.2987 10.8715C20.8244 11.4735 21.0873 12.1354 21.0873 12.8572C21.0873 13.4889 20.9073 14.0669 20.5473 14.5911C20.1876 15.1153 19.7289 15.6217 19.1713 16.1103C17.9509 17.2113 17.1799 18.0896 16.8584 18.7452C16.5365 19.4005 16.3755 20.3881 16.3755 21.7083ZM17.7158 35.5857C15.2732 35.5857 12.9773 35.1222 10.8282 34.1952C8.67901 33.2683 6.8096 32.0103 5.21996 30.4213C3.63031 28.8322 2.3717 26.9636 1.44412 24.8154C0.516856 22.6671 0.0532227 20.3719 0.0532227 17.9296C0.0532227 15.4871 0.516701 13.1912 1.44366 11.042C2.37062 8.89288 3.62861 7.02347 5.21764 5.43383C6.80666 3.84418 8.67529 2.58557 10.8235 1.65799C12.9718 0.730723 15.267 0.26709 17.7093 0.26709C20.1518 0.26709 22.4477 0.730568 24.5968 1.65753C26.746 2.58448 28.6154 3.84248 30.2051 5.4315C31.7947 7.02053 33.0533 8.88916 33.9809 11.0374C34.9082 13.1856 35.3718 15.4809 35.3718 17.9231C35.3718 20.3657 34.9083 22.6615 33.9814 24.8107C33.0544 26.9599 31.7964 28.8293 30.2074 30.4189C28.6184 32.0086 26.7497 33.2672 24.6015 34.1948C22.4533 35.122 20.158 35.5857 17.7158 35.5857ZM17.7125 32.7974C21.864 32.7974 25.3804 31.3567 28.2616 28.4755C31.1429 25.5942 32.5835 22.0779 32.5835 17.9264C32.5835 13.7749 31.1429 10.2585 28.2616 7.37728C25.3804 4.49602 21.864 3.0554 17.7125 3.0554C13.561 3.0554 10.0447 4.49602 7.16341 7.37728C4.28216 10.2585 2.84153 13.7749 2.84153 17.9264C2.84153 22.0779 4.28216 25.5942 7.16341 28.4755C10.0447 31.3567 13.561 32.7974 17.7125 32.7974Z" fill="#1C1B1F"/>
</svg>
