<svg width="25" height="24" viewBox="0 0 25 24" fill="none" xmlns="http://www.w3.org/2000/svg">
<path d="M8.67228 23.6147C9.22457 23.6147 9.67228 23.167 9.67228 22.6147V16.1442C9.67228 15.5919 10.12 15.1442 10.6723 15.1442H14.0056C14.5579 15.1442 15.0056 15.5919 15.0056 16.1442V22.6147C15.0056 23.167 15.4533 23.6147 16.0056 23.6147H20.6723C21.2246 23.6147 21.6723 23.167 21.6723 22.6147V13.3206C21.6723 12.7683 22.12 12.3206 22.6723 12.3206H23.1733C24.0759 12.3206 24.5166 11.2193 23.8632 10.5967L13.0288 0.27215C12.6426 -0.0959363 12.0353 -0.0959366 11.6491 0.27215L0.814683 10.5967C0.161282 11.2193 0.601983 12.3206 1.50455 12.3206H2.00562C2.5579 12.3206 3.00561 12.7683 3.00561 13.3206V22.6147C3.00561 23.167 3.45333 23.6147 4.00562 23.6147H8.67228Z" fill="#F4F4F4"/>
</svg>
