<svg width="20" height="10" viewBox="0 0 20 10" fill="none" xmlns="http://www.w3.org/2000/svg">
<path d="M9.04603 9.0961H5.27678C4.02111 9.0961 2.95078 8.6536 2.06578 7.7686C1.18078 6.88377 0.738281 5.8136 0.738281 4.5581C0.738281 3.3026 1.18078 2.23227 2.06578 1.3471C2.95078 0.461771 4.02111 0.019104 5.27678 0.019104H9.04603V1.5191H5.27678C4.43695 1.5191 3.72061 1.8156 3.12778 2.4086C2.53478 3.0016 2.23828 3.71794 2.23828 4.5576C2.23828 5.39727 2.53478 6.1136 3.12778 6.7066C3.72061 7.2996 4.43695 7.5961 5.27678 7.5961H9.04603V9.0961ZM6.48828 5.3076V3.8076H13.9883V5.3076H6.48828ZM11.4305 9.0961V7.5961H15.1998C16.0396 7.5961 16.7559 7.2996 17.3488 6.7066C17.9418 6.1136 18.2383 5.39727 18.2383 4.5576C18.2383 3.71794 17.9418 3.0016 17.3488 2.4086C16.7559 1.8156 16.0396 1.5191 15.1998 1.5191H11.4305V0.019104H15.1998C16.4554 0.019104 17.5258 0.461603 18.4108 1.3466C19.2958 2.23144 19.7383 3.3016 19.7383 4.5571C19.7383 5.8126 19.2958 6.88294 18.4108 7.7681C17.5258 8.65344 16.4554 9.0961 15.1998 9.0961H11.4305Z" fill="#07294D"/>
</svg>
