<svg width="19" height="22" viewBox="0 0 19 22" fill="none" xmlns="http://www.w3.org/2000/svg">
<path d="M9.75 19.5719C12.0375 17.4719 13.7344 15.564 14.8406 13.8484C15.9469 12.1328 16.5 10.6094 16.5 9.2781C16.5 7.23435 15.8484 5.56091 14.5453 4.25779C13.2422 2.95466 11.6438 2.3031 9.75 2.3031C7.85625 2.3031 6.25781 2.95466 4.95469 4.25779C3.65156 5.56091 3 7.23435 3 9.2781C3 10.6094 3.55313 12.1328 4.65938 13.8484C5.76562 15.564 7.4625 17.4719 9.75 19.5719ZM9.75 21.7937C9.4875 21.7937 9.225 21.7469 8.9625 21.6531C8.7 21.5594 8.46563 21.4187 8.25938 21.2312C7.04063 20.1062 5.9625 19.0094 5.025 17.9406C4.0875 16.8719 3.30469 15.8359 2.67656 14.8328C2.04844 13.8297 1.57031 12.864 1.24219 11.9359C0.914062 11.0078 0.75 10.1219 0.75 9.2781C0.75 6.4656 1.65469 4.22498 3.46406 2.55623C5.27344 0.887476 7.36875 0.0531006 9.75 0.0531006C12.1312 0.0531006 14.2266 0.887476 16.0359 2.55623C17.8453 4.22498 18.75 6.4656 18.75 9.2781C18.75 10.1219 18.5859 11.0078 18.2578 11.9359C17.9297 12.864 17.4516 13.8297 16.8234 14.8328C16.1953 15.8359 15.4125 16.8719 14.475 17.9406C13.5375 19.0094 12.4594 20.1062 11.2406 21.2312C11.0344 21.4187 10.8 21.5594 10.5375 21.6531C10.275 21.7469 10.0125 21.7937 9.75 21.7937ZM9.75 11.3031C10.3687 11.3031 10.8984 11.0828 11.3391 10.6422C11.7797 10.2015 12 9.67185 12 9.0531C12 8.43435 11.7797 7.90466 11.3391 7.46404C10.8984 7.02341 10.3687 6.8031 9.75 6.8031C9.13125 6.8031 8.60156 7.02341 8.16094 7.46404C7.72031 7.90466 7.5 8.43435 7.5 9.0531C7.5 9.67185 7.72031 10.2015 8.16094 10.6422C8.60156 11.0828 9.13125 11.3031 9.75 11.3031Z" fill="#F4F4F4"/>
</svg>
