<svg width="19" height="23" viewBox="0 0 19 23" fill="none" xmlns="http://www.w3.org/2000/svg">
<path id="location_on" d="M9.94141 20.4511C12.2289 18.3511 13.9258 16.4432 15.032 14.7276C16.1383 13.012 16.6914 11.4886 16.6914 10.1573C16.6914 8.11356 16.0398 6.44012 14.7367 5.137C13.4336 3.83387 11.8352 3.18231 9.94141 3.18231C8.04766 3.18231 6.44922 3.83387 5.14609 5.137C3.84297 6.44012 3.19141 8.11356 3.19141 10.1573C3.19141 11.4886 3.74453 13.012 4.85078 14.7276C5.95703 16.4432 7.65391 18.3511 9.94141 20.4511ZM9.94141 22.6729C9.67891 22.6729 9.41641 22.6261 9.15391 22.5323C8.89141 22.4386 8.65703 22.2979 8.45078 22.1104C7.23203 20.9854 6.15391 19.8886 5.21641 18.8198C4.27891 17.7511 3.49609 16.7151 2.86797 15.712C2.23984 14.7089 1.76172 13.7432 1.43359 12.8151C1.10547 11.887 0.941406 11.0011 0.941406 10.1573C0.941406 7.34481 1.84609 5.10419 3.65547 3.43544C5.46484 1.76669 7.56016 0.932312 9.94141 0.932312C12.3227 0.932312 14.418 1.76669 16.2273 3.43544C18.0367 5.10419 18.9414 7.34481 18.9414 10.1573C18.9414 11.0011 18.7773 11.887 18.4492 12.8151C18.1211 13.7432 17.643 14.7089 17.0148 15.712C16.3867 16.7151 15.6039 17.7511 14.6664 18.8198C13.7289 19.8886 12.6508 20.9854 11.432 22.1104C11.2258 22.2979 10.9914 22.4386 10.7289 22.5323C10.4664 22.6261 10.2039 22.6729 9.94141 22.6729ZM9.94141 12.1823C10.5602 12.1823 11.0898 11.962 11.5305 11.5214C11.9711 11.0807 12.1914 10.5511 12.1914 9.93231C12.1914 9.31356 11.9711 8.78387 11.5305 8.34325C11.0898 7.90262 10.5602 7.68231 9.94141 7.68231C9.32266 7.68231 8.79297 7.90262 8.35234 8.34325C7.91172 8.78387 7.69141 9.31356 7.69141 9.93231C7.69141 10.5511 7.91172 11.0807 8.35234 11.5214C8.79297 11.962 9.32266 12.1823 9.94141 12.1823Z" fill="#333333"/>
</svg>
