<svg width="17" height="22" viewBox="0 0 17 22" fill="none" xmlns="http://www.w3.org/2000/svg">
<path d="M8.79688 16.5C8.26644 16.5 7.75773 16.2893 7.38266 15.9142C7.00759 15.5391 6.79688 15.0304 6.79688 14.5C6.79688 13.39 7.68687 12.5 8.79688 12.5C9.32731 12.5 9.83602 12.7107 10.2111 13.0858C10.5862 13.4609 10.7969 13.9696 10.7969 14.5C10.7969 15.0304 10.5862 15.5391 10.2111 15.9142C9.83602 16.2893 9.32731 16.5 8.79688 16.5ZM14.7969 19.5V9.5H2.79688V19.5H14.7969ZM14.7969 7.5C15.3273 7.5 15.836 7.71071 16.2111 8.08579C16.5862 8.46086 16.7969 8.96957 16.7969 9.5V19.5C16.7969 20.0304 16.5862 20.5391 16.2111 20.9142C15.836 21.2893 15.3273 21.5 14.7969 21.5H2.79688C2.26644 21.5 1.75773 21.2893 1.38266 20.9142C1.00759 20.5391 0.796875 20.0304 0.796875 19.5V9.5C0.796875 8.39 1.68687 7.5 2.79688 7.5H3.79688V5.5C3.79688 4.17392 4.32366 2.90215 5.26134 1.96447C6.19902 1.02678 7.47079 0.5 8.79688 0.5C9.45348 0.5 10.1037 0.629329 10.7103 0.880602C11.3169 1.13188 11.8681 1.50017 12.3324 1.96447C12.7967 2.42876 13.165 2.97995 13.4163 3.58658C13.6675 4.19321 13.7969 4.84339 13.7969 5.5V7.5H14.7969ZM8.79688 2.5C8.00123 2.5 7.23816 2.81607 6.67555 3.37868C6.11295 3.94129 5.79688 4.70435 5.79688 5.5V7.5H11.7969V5.5C11.7969 4.70435 11.4808 3.94129 10.9182 3.37868C10.3556 2.81607 9.59252 2.5 8.79688 2.5Z" fill="#0BA3A8"/>
</svg>
