<svg width="21" height="22" viewBox="0 0 21 22" fill="none" xmlns="http://www.w3.org/2000/svg">
<path d="M6.98096 14.6126C6.98096 14.4392 7.04984 14.273 7.17244 14.1504C7.29504 14.0277 7.46133 13.9589 7.63472 13.9589H10.2497C10.4231 13.9589 10.5894 14.0277 10.712 14.1504C10.8346 14.273 10.9035 14.4392 10.9035 14.6126C10.9035 14.786 10.8346 14.9523 10.712 15.0749C10.5894 15.1975 10.4231 15.2664 10.2497 15.2664H7.63472C7.46133 15.2664 7.29504 15.1975 7.17244 15.0749C7.04984 14.9523 6.98096 14.786 6.98096 14.6126ZM6.98096 11.9976C6.98096 11.8242 7.04984 11.6579 7.17244 11.5353C7.29504 11.4127 7.46133 11.3438 7.63472 11.3438H14.1723C14.3457 11.3438 14.512 11.4127 14.6346 11.5353C14.7572 11.6579 14.8261 11.8242 14.8261 11.9976C14.8261 12.171 14.7572 12.3373 14.6346 12.4599C14.512 12.5825 14.3457 12.6514 14.1723 12.6514H7.63472C7.46133 12.6514 7.29504 12.5825 7.17244 12.4599C7.04984 12.3373 6.98096 12.171 6.98096 11.9976ZM6.98096 9.38256C6.98096 9.20917 7.04984 9.04289 7.17244 8.92028C7.29504 8.79768 7.46133 8.7288 7.63472 8.7288H14.1723C14.3457 8.7288 14.512 8.79768 14.6346 8.92028C14.7572 9.04289 14.8261 9.20917 14.8261 9.38256C14.8261 9.55595 14.7572 9.72223 14.6346 9.84484C14.512 9.96744 14.3457 10.0363 14.1723 10.0363H7.63472C7.46133 10.0363 7.29504 9.96744 7.17244 9.84484C7.04984 9.72223 6.98096 9.55595 6.98096 9.38256ZM6.98096 6.76753C6.98096 6.59414 7.04984 6.42785 7.17244 6.30525C7.29504 6.18265 7.46133 6.11377 7.63472 6.11377H14.1723C14.3457 6.11377 14.512 6.18265 14.6346 6.30525C14.7572 6.42785 14.8261 6.59414 14.8261 6.76753C14.8261 6.94092 14.7572 7.1072 14.6346 7.2298C14.512 7.35241 14.3457 7.42129 14.1723 7.42129H7.63472C7.46133 7.42129 7.29504 7.35241 7.17244 7.2298C7.04984 7.1072 6.98096 6.94092 6.98096 6.76753Z" fill="#333333"/>
<path d="M4.36601 0.883667H17.4412C18.1347 0.883667 18.7999 1.15918 19.2903 1.64959C19.7807 2.14001 20.0562 2.80515 20.0562 3.4987V19.1889C20.0562 19.8825 19.7807 20.5476 19.2903 21.038C18.7999 21.5284 18.1347 21.8039 17.4412 21.8039H4.36601C3.67246 21.8039 3.00732 21.5284 2.5169 21.038C2.02649 20.5476 1.75098 19.8825 1.75098 19.1889V17.8814H3.05849V19.1889C3.05849 19.5357 3.19625 19.8682 3.44146 20.1135C3.68666 20.3587 4.01924 20.4964 4.36601 20.4964H17.4412C17.788 20.4964 18.1205 20.3587 18.3657 20.1135C18.6109 19.8682 18.7487 19.5357 18.7487 19.1889V3.4987C18.7487 3.15193 18.6109 2.81935 18.3657 2.57415C18.1205 2.32894 17.788 2.19118 17.4412 2.19118H4.36601C4.01924 2.19118 3.68666 2.32894 3.44146 2.57415C3.19625 2.81935 3.05849 3.15193 3.05849 3.4987V4.80622H1.75098V3.4987C1.75098 2.80515 2.02649 2.14001 2.5169 1.64959C3.00732 1.15918 3.67246 0.883667 4.36601 0.883667Z" fill="#333333"/>
<path d="M1.75088 7.42129V6.76753C1.75088 6.59414 1.81975 6.42785 1.94236 6.30525C2.06496 6.18265 2.23125 6.11377 2.40463 6.11377C2.57802 6.11377 2.74431 6.18265 2.86691 6.30525C2.98952 6.42785 3.05839 6.59414 3.05839 6.76753V7.42129H3.71215C3.88554 7.42129 4.05182 7.49016 4.17443 7.61277C4.29703 7.73537 4.36591 7.90166 4.36591 8.07504C4.36591 8.24843 4.29703 8.41472 4.17443 8.53732C4.05182 8.65993 3.88554 8.7288 3.71215 8.7288H1.09712C0.92373 8.7288 0.757444 8.65993 0.634841 8.53732C0.512237 8.41472 0.443359 8.24843 0.443359 8.07504C0.443359 7.90166 0.512237 7.73537 0.634841 7.61277C0.757444 7.49016 0.92373 7.42129 1.09712 7.42129H1.75088ZM1.75088 11.3438V10.6901C1.75088 10.5167 1.81975 10.3504 1.94236 10.2278C2.06496 10.1052 2.23125 10.0363 2.40463 10.0363C2.57802 10.0363 2.74431 10.1052 2.86691 10.2278C2.98952 10.3504 3.05839 10.5167 3.05839 10.6901V11.3438H3.71215C3.88554 11.3438 4.05182 11.4127 4.17443 11.5353C4.29703 11.6579 4.36591 11.8242 4.36591 11.9976C4.36591 12.171 4.29703 12.3373 4.17443 12.4599C4.05182 12.5825 3.88554 12.6514 3.71215 12.6514H1.09712C0.92373 12.6514 0.757444 12.5825 0.634841 12.4599C0.512237 12.3373 0.443359 12.171 0.443359 11.9976C0.443359 11.8242 0.512237 11.6579 0.634841 11.5353C0.757444 11.4127 0.92373 11.3438 1.09712 11.3438H1.75088ZM1.75088 15.2664V14.6126C1.75088 14.4392 1.81975 14.273 1.94236 14.1504C2.06496 14.0277 2.23125 13.9589 2.40463 13.9589C2.57802 13.9589 2.74431 14.0277 2.86691 14.1504C2.98952 14.273 3.05839 14.4392 3.05839 14.6126V15.2664H3.71215C3.88554 15.2664 4.05182 15.3353 4.17443 15.4579C4.29703 15.5805 4.36591 15.7468 4.36591 15.9201C4.36591 16.0935 4.29703 16.2598 4.17443 16.3824C4.05182 16.505 3.88554 16.5739 3.71215 16.5739H1.09712C0.92373 16.5739 0.757444 16.505 0.634841 16.3824C0.512237 16.2598 0.443359 16.0935 0.443359 15.9201C0.443359 15.7468 0.512237 15.5805 0.634841 15.4579C0.757444 15.3353 0.92373 15.2664 1.09712 15.2664H1.75088Z" fill="#333333"/>
</svg>
