<svg width="24" height="24" viewBox="0 0 24 24" fill="none" xmlns="http://www.w3.org/2000/svg">
<g clip-path="url(#clip0_2413_2435)">
<path d="M5.16495 0.136353H19.5127C20.2737 0.136353 21.0036 0.438679 21.5418 0.976823C22.0799 1.51497 22.3822 2.24485 22.3822 3.0059V20.2232C22.3822 20.9842 22.0799 21.7141 21.5418 22.2522C21.0036 22.7904 20.2737 23.0927 19.5127 23.0927H5.16495C4.4039 23.0927 3.67402 22.7904 3.13588 22.2522C2.59774 21.7141 2.29541 20.9842 2.29541 20.2232V18.7884H3.73018V20.2232C3.73018 20.6037 3.88135 20.9686 4.15042 21.2377C4.41949 21.5068 4.78443 21.6579 5.16495 21.6579H19.5127C19.8932 21.6579 20.2581 21.5068 20.5272 21.2377C20.7963 20.9686 20.9475 20.6037 20.9475 20.2232V3.0059C20.9475 2.62537 20.7963 2.26043 20.5272 1.99136C20.2581 1.72229 19.8932 1.57112 19.5127 1.57112H5.16495C4.78443 1.57112 4.41949 1.72229 4.15042 1.99136C3.88135 2.26043 3.73018 2.62537 3.73018 3.0059V4.44067H2.29541V3.0059C2.29541 2.24485 2.59774 1.51497 3.13588 0.976823C3.67402 0.438679 4.4039 0.136353 5.16495 0.136353Z" fill="#F4F4F4"/>
<path d="M2.29537 7.3105V6.59312C2.29537 6.40286 2.37095 6.22039 2.50549 6.08585C2.64002 5.95131 2.82249 5.87573 3.01275 5.87573C3.20302 5.87573 3.38549 5.95131 3.52002 6.08585C3.65456 6.22039 3.73014 6.40286 3.73014 6.59312V7.3105H4.44753C4.63779 7.3105 4.82026 7.38609 4.9548 7.52062C5.08933 7.65516 5.16491 7.83763 5.16491 8.02789C5.16491 8.21815 5.08933 8.40062 4.9548 8.53516C4.82026 8.6697 4.63779 8.74528 4.44753 8.74528H1.57798C1.38772 8.74528 1.20525 8.6697 1.07071 8.53516C0.936177 8.40062 0.860596 8.21815 0.860596 8.02789C0.860596 7.83763 0.936177 7.65516 1.07071 7.52062C1.20525 7.38609 1.38772 7.3105 1.57798 7.3105H2.29537ZM2.29537 11.6148V10.8974C2.29537 10.7072 2.37095 10.5247 2.50549 10.3902C2.64002 10.2556 2.82249 10.18 3.01275 10.18C3.20302 10.18 3.38549 10.2556 3.52002 10.3902C3.65456 10.5247 3.73014 10.7072 3.73014 10.8974V11.6148H4.44753C4.63779 11.6148 4.82026 11.6904 4.9548 11.8249C5.08933 11.9595 5.16491 12.1419 5.16491 12.3322C5.16491 12.5225 5.08933 12.7049 4.9548 12.8395C4.82026 12.974 4.63779 13.0496 4.44753 13.0496H1.57798C1.38772 13.0496 1.20525 12.974 1.07071 12.8395C0.936177 12.7049 0.860596 12.5225 0.860596 12.3322C0.860596 12.1419 0.936177 11.9595 1.07071 11.8249C1.20525 11.6904 1.38772 11.6148 1.57798 11.6148H2.29537ZM2.29537 15.9191V15.2018C2.29537 15.0115 2.37095 14.829 2.50549 14.6945C2.64002 14.5599 2.82249 14.4844 3.01275 14.4844C3.20302 14.4844 3.38549 14.5599 3.52002 14.6945C3.65456 14.829 3.73014 15.0115 3.73014 15.2018V15.9191H4.44753C4.63779 15.9191 4.82026 15.9947 4.9548 16.1293C5.08933 16.2638 5.16491 16.4463 5.16491 16.6365C5.16491 16.8268 5.08933 17.0093 4.9548 17.1438C4.82026 17.2783 4.63779 17.3539 4.44753 17.3539H1.57798C1.38772 17.3539 1.20525 17.2783 1.07071 17.1438C0.936177 17.0093 0.860596 16.8268 0.860596 16.6365C0.860596 16.4463 0.936177 16.2638 1.07071 16.1293C1.20525 15.9947 1.38772 15.9191 1.57798 15.9191H2.29537Z" fill="#F4F4F4"/>
<path d="M2.29517 3.04858C2.29517 1.94401 3.1906 1.04858 4.29517 1.04858H21.26V22.2468H6.29517C4.08603 22.2468 2.29517 20.456 2.29517 18.2468V3.04858Z" fill="#F4F4F4"/>
<path d="M8.03442 15.2018C8.03442 15.0115 8.11001 14.829 8.24454 14.6945C8.37908 14.5599 8.56155 14.4844 8.75181 14.4844H11.6214C11.8116 14.4844 11.9941 14.5599 12.1286 14.6945C12.2632 14.829 12.3387 15.0115 12.3387 15.2018C12.3387 15.392 12.2632 15.5745 12.1286 15.709C11.9941 15.8436 11.8116 15.9191 11.6214 15.9191H8.75181C8.56155 15.9191 8.37908 15.8436 8.24454 15.709C8.11001 15.5745 8.03442 15.392 8.03442 15.2018ZM8.03442 12.3322C8.03442 12.1419 8.11001 11.9595 8.24454 11.8249C8.37908 11.6904 8.56155 11.6148 8.75181 11.6148H15.9257C16.1159 11.6148 16.2984 11.6904 16.4329 11.8249C16.5675 11.9595 16.6431 12.1419 16.6431 12.3322C16.6431 12.5225 16.5675 12.7049 16.4329 12.8395C16.2984 12.974 16.1159 13.0496 15.9257 13.0496H8.75181C8.56155 13.0496 8.37908 12.974 8.24454 12.8395C8.11001 12.7049 8.03442 12.5225 8.03442 12.3322ZM8.03442 9.46266C8.03442 9.2724 8.11001 9.08993 8.24454 8.95539C8.37908 8.82086 8.56155 8.74528 8.75181 8.74528H15.9257C16.1159 8.74528 16.2984 8.82086 16.4329 8.95539C16.5675 9.08993 16.6431 9.2724 16.6431 9.46266C16.6431 9.65293 16.5675 9.8354 16.4329 9.96993C16.2984 10.1045 16.1159 10.18 15.9257 10.18H8.75181C8.56155 10.18 8.37908 10.1045 8.24454 9.96993C8.11001 9.8354 8.03442 9.65293 8.03442 9.46266ZM8.03442 6.59312C8.03442 6.40286 8.11001 6.22039 8.24454 6.08585C8.37908 5.95131 8.56155 5.87573 8.75181 5.87573H15.9257C16.1159 5.87573 16.2984 5.95131 16.4329 6.08585C16.5675 6.22039 16.6431 6.40286 16.6431 6.59312C16.6431 6.78338 16.5675 6.96585 16.4329 7.10039C16.2984 7.23492 16.1159 7.3105 15.9257 7.3105H8.75181C8.56155 7.3105 8.37908 7.23492 8.24454 7.10039C8.11001 6.96585 8.03442 6.78338 8.03442 6.59312Z" fill="#0BA3A8"/>
</g>
<defs>
<clipPath id="clip0_2413_2435">
<rect width="22.9564" height="22.9564" fill="white" transform="translate(0.860596 0.136597)"/>
</clipPath>
</defs>
</svg>
