<svg width="24" height="24" viewBox="0 0 24 24" fill="none" xmlns="http://www.w3.org/2000/svg">
<g clip-path="url(#clip0_2413_2406)">
<path d="M8.03442 15.2016C8.03442 15.0113 8.11001 14.8288 8.24454 14.6943C8.37908 14.5598 8.56155 14.4842 8.75181 14.4842H11.6214C11.8116 14.4842 11.9941 14.5598 12.1286 14.6943C12.2632 14.8288 12.3387 15.0113 12.3387 15.2016C12.3387 15.3918 12.2632 15.5743 12.1286 15.7088C11.9941 15.8434 11.8116 15.919 11.6214 15.919H8.75181C8.56155 15.919 8.37908 15.8434 8.24454 15.7088C8.11001 15.5743 8.03442 15.3918 8.03442 15.2016ZM8.03442 12.332C8.03442 12.1418 8.11001 11.9593 8.24454 11.8248C8.37908 11.6902 8.56155 11.6146 8.75181 11.6146H15.9257C16.1159 11.6146 16.2984 11.6902 16.4329 11.8248C16.5675 11.9593 16.6431 12.1418 16.6431 12.332C16.6431 12.5223 16.5675 12.7048 16.4329 12.8393C16.2984 12.9738 16.1159 13.0494 15.9257 13.0494H8.75181C8.56155 13.0494 8.37908 12.9738 8.24454 12.8393C8.11001 12.7048 8.03442 12.5223 8.03442 12.332ZM8.03442 9.46248C8.03442 9.27222 8.11001 9.08975 8.24454 8.95521C8.37908 8.82068 8.56155 8.74509 8.75181 8.74509H15.9257C16.1159 8.74509 16.2984 8.82068 16.4329 8.95521C16.5675 9.08975 16.6431 9.27222 16.6431 9.46248C16.6431 9.65274 16.5675 9.83521 16.4329 9.96975C16.2984 10.1043 16.1159 10.1799 15.9257 10.1799H8.75181C8.56155 10.1799 8.37908 10.1043 8.24454 9.96975C8.11001 9.83521 8.03442 9.65274 8.03442 9.46248ZM8.03442 6.59294C8.03442 6.40267 8.11001 6.2202 8.24454 6.08567C8.37908 5.95113 8.56155 5.87555 8.75181 5.87555H15.9257C16.1159 5.87555 16.2984 5.95113 16.4329 6.08567C16.5675 6.2202 16.6431 6.40267 16.6431 6.59294C16.6431 6.7832 16.5675 6.96567 16.4329 7.1002C16.2984 7.23474 16.1159 7.31032 15.9257 7.31032H8.75181C8.56155 7.31032 8.37908 7.23474 8.24454 7.1002C8.11001 6.96567 8.03442 6.7832 8.03442 6.59294Z" fill="#F4F4F4"/>
<path d="M5.16495 0.136169H19.5127C20.2737 0.136169 21.0036 0.438496 21.5418 0.97664C22.0799 1.51478 22.3822 2.24466 22.3822 3.00571V20.223C22.3822 20.984 22.0799 21.7139 21.5418 22.2521C21.0036 22.7902 20.2737 23.0925 19.5127 23.0925H5.16495C4.4039 23.0925 3.67402 22.7902 3.13588 22.2521C2.59774 21.7139 2.29541 20.984 2.29541 20.223V18.7882H3.73018V20.223C3.73018 20.6035 3.88135 20.9684 4.15042 21.2375C4.41949 21.5066 4.78443 21.6578 5.16495 21.6578H19.5127C19.8932 21.6578 20.2581 21.5066 20.5272 21.2375C20.7963 20.9684 20.9475 20.6035 20.9475 20.223V3.00571C20.9475 2.62519 20.7963 2.26025 20.5272 1.99118C20.2581 1.7221 19.8932 1.57094 19.5127 1.57094H5.16495C4.78443 1.57094 4.41949 1.7221 4.15042 1.99118C3.88135 2.26025 3.73018 2.62519 3.73018 3.00571V4.44049H2.29541V3.00571C2.29541 2.24466 2.59774 1.51478 3.13588 0.97664C3.67402 0.438496 4.4039 0.136169 5.16495 0.136169Z" fill="#F4F4F4"/>
<path d="M2.29537 7.31032V6.59294C2.29537 6.40267 2.37095 6.2202 2.50549 6.08567C2.64002 5.95113 2.82249 5.87555 3.01275 5.87555C3.20302 5.87555 3.38549 5.95113 3.52002 6.08567C3.65456 6.2202 3.73014 6.40267 3.73014 6.59294V7.31032H4.44753C4.63779 7.31032 4.82026 7.3859 4.9548 7.52044C5.08933 7.65498 5.16491 7.83745 5.16491 8.02771C5.16491 8.21797 5.08933 8.40044 4.9548 8.53498C4.82026 8.66951 4.63779 8.74509 4.44753 8.74509H1.57798C1.38772 8.74509 1.20525 8.66951 1.07071 8.53498C0.936177 8.40044 0.860596 8.21797 0.860596 8.02771C0.860596 7.83745 0.936177 7.65498 1.07071 7.52044C1.20525 7.3859 1.38772 7.31032 1.57798 7.31032H2.29537ZM2.29537 11.6146V10.8973C2.29537 10.707 2.37095 10.5245 2.50549 10.39C2.64002 10.2554 2.82249 10.1799 3.01275 10.1799C3.20302 10.1799 3.38549 10.2554 3.52002 10.39C3.65456 10.5245 3.73014 10.707 3.73014 10.8973V11.6146H4.44753C4.63779 11.6146 4.82026 11.6902 4.9548 11.8248C5.08933 11.9593 5.16491 12.1418 5.16491 12.332C5.16491 12.5223 5.08933 12.7048 4.9548 12.8393C4.82026 12.9738 4.63779 13.0494 4.44753 13.0494H1.57798C1.38772 13.0494 1.20525 12.9738 1.07071 12.8393C0.936177 12.7048 0.860596 12.5223 0.860596 12.332C0.860596 12.1418 0.936177 11.9593 1.07071 11.8248C1.20525 11.6902 1.38772 11.6146 1.57798 11.6146H2.29537ZM2.29537 15.919V15.2016C2.29537 15.0113 2.37095 14.8288 2.50549 14.6943C2.64002 14.5598 2.82249 14.4842 3.01275 14.4842C3.20302 14.4842 3.38549 14.5598 3.52002 14.6943C3.65456 14.8288 3.73014 15.0113 3.73014 15.2016V15.919H4.44753C4.63779 15.919 4.82026 15.9945 4.9548 16.1291C5.08933 16.2636 5.16491 16.4461 5.16491 16.6363C5.16491 16.8266 5.08933 17.0091 4.9548 17.1436C4.82026 17.2781 4.63779 17.3537 4.44753 17.3537H1.57798C1.38772 17.3537 1.20525 17.2781 1.07071 17.1436C0.936177 17.0091 0.860596 16.8266 0.860596 16.6363C0.860596 16.4461 0.936177 16.2636 1.07071 16.1291C1.20525 15.9945 1.38772 15.919 1.57798 15.919H2.29537Z" fill="#F4F4F4"/>
</g>
<defs>
<clipPath id="clip0_2413_2406">
<rect width="22.9564" height="22.9564" fill="white" transform="translate(0.860596 0.136475)"/>
</clipPath>
</defs>
</svg>
