<svg width="15" height="17" viewBox="0 0 15 17" fill="none" xmlns="http://www.w3.org/2000/svg">
<path d="M0.918945 15.2109C0.918945 15.7632 1.36666 16.2109 1.91895 16.2109H4.30622C4.85851 16.2109 5.30622 15.7632 5.30622 15.2109V1.85547C5.30622 1.30318 4.85851 0.855469 4.30622 0.855469H1.91894C1.36666 0.855469 0.918945 1.30318 0.918945 1.85547V15.2109ZM10.6935 0.855469C10.1412 0.855469 9.6935 1.30318 9.6935 1.85547V15.2109C9.6935 15.7632 10.1412 16.2109 10.6935 16.2109H13.0808C13.6331 16.2109 14.0808 15.7632 14.0808 15.2109V1.85547C14.0808 1.30318 13.6331 0.855469 13.0808 0.855469H10.6935Z" fill="#F4F4F4"/>
</svg>
