<svg width="22" height="20" viewBox="0 0 22 20" fill="none" xmlns="http://www.w3.org/2000/svg">
<path d="M1.06763 19.0813C0.738059 19.2201 0.373535 18.9781 0.373535 18.6205V1.37963C0.373535 1.02201 0.738057 0.780012 1.06763 0.91884L21.5325 9.53927C21.9404 9.71108 21.9404 10.289 21.5325 10.4608L1.06763 19.0813ZM2.3129 16.4646L16.5421 10.4607C16.9496 10.2888 16.9496 9.71133 16.5421 9.53939L2.3129 3.53551V7.9155C2.3129 8.14649 2.47113 8.34742 2.69569 8.40157L7.30872 9.51399C7.8191 9.63707 7.8191 10.3631 7.30872 10.4861L2.69569 11.5986C2.47113 11.6527 2.3129 11.8536 2.3129 12.0846V16.4646Z" fill="#07294D"/>
</svg>
