<svg width="23" height="19" viewBox="0 0 23 19" fill="none" xmlns="http://www.w3.org/2000/svg">
<path d="M1.60523 18.9082C1.27566 19.047 0.911133 18.805 0.911133 18.4474V1.20653C0.911133 0.848909 1.27565 0.606917 1.60523 0.745744L22.0701 9.36618C22.478 9.53798 22.478 10.1159 22.0701 10.2878L1.60523 18.9082ZM2.8505 16.2915L17.0797 10.2876C17.4872 10.1157 17.4872 9.53823 17.0797 9.36629L2.8505 3.36242V7.7424C2.8505 7.9734 3.00873 8.17432 3.23328 8.22847L7.84632 9.3409C8.3567 9.46398 8.3567 10.19 7.84632 10.313L3.23328 11.4255C3.00873 11.4796 2.8505 11.6805 2.8505 11.9115V16.2915Z" fill="#F4F4F4"/>
</svg>
