<svg width="28" height="35" viewBox="0 0 28 35" fill="none" xmlns="http://www.w3.org/2000/svg">
<path d="M18.4062 10.4688H20.5156C21.0751 10.4688 21.6116 10.691 22.0072 11.0866C22.4028 11.4822 22.625 12.0187 22.625 12.5781V22.7031C22.625 23.2626 22.4028 23.7991 22.0072 24.1947C21.6116 24.5903 21.0751 24.8125 20.5156 24.8125H7.85938C7.29993 24.8125 6.76341 24.5903 6.36782 24.1947C5.97224 23.7991 5.75 23.2626 5.75 22.7031V12.5781C5.75 12.0187 5.97224 11.4822 6.36782 11.0866C6.76341 10.691 7.29993 10.4687 7.85938 10.4688H9.96875M18.4062 7.09375L14.1875 2.875M14.1875 2.875L9.96875 7.09375M14.1875 2.875V17.2715" stroke="#F4F4F4" stroke-width="1.8" stroke-linecap="round" stroke-linejoin="round"/>
</svg>
