<svg width="28" height="28" viewBox="0 0 28 28" fill="none" xmlns="http://www.w3.org/2000/svg">
<path d="M18.394 11.0255H20.5034C21.0629 11.0255 21.5994 11.2477 21.995 11.6433C22.3906 12.0389 22.6128 12.5754 22.6128 13.1349V23.2599C22.6128 23.8193 22.3906 24.3559 21.995 24.7514C21.5994 25.147 21.0629 25.3693 20.5034 25.3693H7.84717C7.28773 25.3693 6.7512 25.147 6.35561 24.7514C5.96003 24.3559 5.73779 23.8193 5.73779 23.2599V13.1349C5.73779 12.5754 5.96003 12.0389 6.35561 11.6433C6.7512 11.2477 7.28773 11.0255 7.84717 11.0255H9.95654M18.394 7.65051L14.1753 3.43176M14.1753 3.43176L9.95654 7.65051M14.1753 3.43176V17.8282" stroke="#07294D" stroke-width="1.8" stroke-linecap="round" stroke-linejoin="round"/>
</svg>
