<svg width="19" height="22" viewBox="0 0 19 22" fill="none" xmlns="http://www.w3.org/2000/svg">
<path d="M3.87061 21.125C3.25186 21.125 2.72217 20.9047 2.28154 20.4641C1.84092 20.0234 1.62061 19.4938 1.62061 18.875V4.25C1.30186 4.25 1.03467 4.14219 0.819043 3.92656C0.603418 3.71094 0.495605 3.44375 0.495605 3.125C0.495605 2.80625 0.603418 2.53906 0.819043 2.32344C1.03467 2.10781 1.30186 2 1.62061 2H6.12061C6.12061 1.68125 6.22842 1.41406 6.44404 1.19844C6.65967 0.982812 6.92686 0.875 7.24561 0.875H11.7456C12.0644 0.875 12.3315 0.982812 12.5472 1.19844C12.7628 1.41406 12.8706 1.68125 12.8706 2H17.3706C17.6894 2 17.9565 2.10781 18.1722 2.32344C18.3878 2.53906 18.4956 2.80625 18.4956 3.125C18.4956 3.44375 18.3878 3.71094 18.1722 3.92656C17.9565 4.14219 17.6894 4.25 17.3706 4.25V18.875C17.3706 19.4938 17.1503 20.0234 16.7097 20.4641C16.269 20.9047 15.7394 21.125 15.1206 21.125H3.87061ZM15.1206 4.25H3.87061V18.875H15.1206V4.25ZM7.24561 16.625C7.56436 16.625 7.83154 16.5172 8.04717 16.3016C8.26279 16.0859 8.37061 15.8187 8.37061 15.5V7.625C8.37061 7.625 8.26279 7.03906 8.04717 6.82344C7.83154 6.60781 7.56436 6.5 7.24561 6.5C6.92686 6.5 6.65967 6.60781 6.44404 6.82344C6.22842 7.03906 6.12061 7.30625 6.12061 7.625V15.5C6.12061 15.8187 6.22842 16.0859 6.44404 16.3016C6.65967 16.5172 6.92686 16.625 7.24561 16.625ZM11.7456 16.625C12.0644 16.625 12.3315 16.5172 12.5472 16.3016C12.7628 16.0859 12.8706 15.8187 12.8706 15.5V7.625C12.8706 7.30625 12.7628 7.03906 12.5472 6.82344C12.3315 6.60781 12.0644 6.5 11.7456 6.5C11.4269 6.5 11.1597 6.60781 10.944 6.82344C10.7284 7.03906 10.6206 7.30625 10.6206 7.625V15.5C10.6206 15.8187 10.7284 16.0859 10.944 16.3016C11.1597 16.5172 11.4269 16.625 11.7456 16.625Z" fill="#333333"/>
</svg>
