<svg width="22" height="16" viewBox="0 0 22 16" fill="none" xmlns="http://www.w3.org/2000/svg">
<path d="M1.79959 9.406C1.52759 9.033 1.3916 8.846 1.2976 8.486C1.23413 8.16544 1.23413 7.83556 1.2976 7.515C1.3916 7.154 1.52759 6.967 1.79959 6.595C3.28859 4.55 6.55259 1 11.2496 1C15.9466 1 19.2106 4.55 20.6996 6.594C20.9716 6.967 21.1076 7.154 21.2016 7.514C21.2651 7.83456 21.2651 8.16444 21.2016 8.485C21.1076 8.846 20.9716 9.033 20.6996 9.405C19.2106 11.45 15.9466 15 11.2496 15C6.55259 15 3.28859 11.45 1.79959 9.406Z" stroke="#07294D" stroke-width="1.5" stroke-linecap="round" stroke-linejoin="round"/>
<path d="M11.25 10C11.7804 10 12.2891 9.78929 12.6642 9.41421C13.0393 9.03914 13.25 8.53043 13.25 8C13.25 7.46957 13.0393 6.96086 12.6642 6.58579C12.2891 6.21071 11.7804 6 11.25 6C10.7196 6 10.2109 6.21071 9.83579 6.58579C9.46071 6.96086 9.25 7.46957 9.25 8C9.25 8.53043 9.46071 9.03914 9.83579 9.41421C10.2109 9.78929 10.7196 10 11.25 10Z" stroke="#07294D" stroke-width="1.5" stroke-linecap="round" stroke-linejoin="round"/>
</svg>
