<svg width="25" height="25" viewBox="0 0 25 25" fill="none" xmlns="http://www.w3.org/2000/svg">
<path d="M3.44999 13.6422C3.17799 13.2692 3.04199 13.0822 2.94799 12.7222C2.88453 12.4017 2.88453 12.0718 2.94799 11.7512C3.04199 11.3902 3.17799 11.2032 3.44999 10.8312C4.93899 8.78621 8.20299 5.23621 12.9 5.23621C17.597 5.23621 20.861 8.78621 22.35 10.8302C22.622 11.2032 22.758 11.3902 22.852 11.7502C22.9154 12.0708 22.9154 12.4006 22.852 12.7212C22.758 13.0822 22.622 13.2692 22.35 13.6412C20.861 15.6862 17.597 19.2362 12.9 19.2362C8.20299 19.2362 4.93899 15.6862 3.44999 13.6422Z" stroke="#F4F4F4" stroke-width="1.5" stroke-linecap="round" stroke-linejoin="round"/>
<path d="M12.9004 14.2362C13.4308 14.2362 13.9395 14.0255 14.3146 13.6504C14.6897 13.2753 14.9004 12.7666 14.9004 12.2362C14.9004 11.7058 14.6897 11.1971 14.3146 10.822C13.9395 10.4469 13.4308 10.2362 12.9004 10.2362C12.37 10.2362 11.8613 10.4469 11.4862 10.822C11.1111 11.1971 10.9004 11.7058 10.9004 12.2362C10.9004 12.7666 11.1111 13.2753 11.4862 13.6504C11.8613 14.0255 12.37 14.2362 12.9004 14.2362Z" stroke="#F4F4F4" stroke-width="1.5" stroke-linecap="round" stroke-linejoin="round"/>
</svg>
