<svg width="27" height="28" viewBox="0 0 27 28" fill="none" xmlns="http://www.w3.org/2000/svg">
<path d="M22.0054 19.159L20.3471 17.5007C21.1317 16.7696 21.7468 15.9048 22.1926 14.9063C22.6384 13.9077 22.8613 12.8468 22.8613 11.7234C22.8613 10.6 22.6384 9.54801 22.1926 8.5673C21.7468 7.58659 21.1317 6.7307 20.3471 5.99963L22.0054 4.28784C23.0039 5.23289 23.7974 6.34733 24.3858 7.63117C24.9743 8.91501 25.2685 10.2791 25.2685 11.7234C25.2685 13.1677 24.9743 14.5318 24.3858 15.8156C23.7974 17.0995 23.0039 18.2139 22.0054 19.159ZM18.5818 15.7354L16.87 14.0236C17.191 13.7205 17.4495 13.3772 17.6457 12.9939C17.8418 12.6105 17.9399 12.187 17.9399 11.7234C17.9399 11.2598 17.8418 10.8363 17.6457 10.4529C17.4495 10.0696 17.191 9.72632 16.87 9.42319L18.5818 7.71141C19.1524 8.22851 19.5982 8.83031 19.9191 9.51681C20.2401 10.2033 20.4006 10.9388 20.4006 11.7234C20.4006 12.508 20.2401 13.2435 19.9191 13.93C19.5982 14.6165 19.1524 15.2183 18.5818 15.7354ZM10.2904 16.0029C9.11351 16.0029 8.10606 15.5838 7.268 14.7458C6.42994 13.9077 6.0109 12.9003 6.0109 11.7234C6.0109 10.5466 6.42994 9.5391 7.268 8.70104C8.10606 7.86297 9.11351 7.44394 10.2904 7.44394C11.4672 7.44394 12.4747 7.86297 13.3127 8.70104C14.1508 9.5391 14.5698 10.5466 14.5698 11.7234C14.5698 12.9003 14.1508 13.9077 13.3127 14.7458C12.4747 15.5838 11.4672 16.0029 10.2904 16.0029ZM1.73145 24.5618V21.5662C1.73145 20.9777 1.88301 20.425 2.18614 19.9079C2.48927 19.3908 2.9083 18.9985 3.44323 18.731C4.35261 18.2674 5.3779 17.8751 6.51909 17.5542C7.66028 17.2332 8.91737 17.0727 10.2904 17.0727C11.6634 17.0727 12.9204 17.2332 14.0616 17.5542C15.2028 17.8751 16.2281 18.2674 17.1375 18.731C17.6724 18.9985 18.0915 19.3908 18.3946 19.9079C18.6977 20.425 18.8493 20.9777 18.8493 21.5662V24.5618H1.73145ZM3.87118 22.4221H16.7096V21.5662C16.7096 21.37 16.6605 21.1917 16.5624 21.0312C16.4644 20.8707 16.3351 20.7459 16.1746 20.6568C15.5327 20.3358 14.708 20.0149 13.7006 19.6939C12.6931 19.3729 11.5564 19.2125 10.2904 19.2125C9.02436 19.2125 7.88763 19.3729 6.88017 19.6939C5.87271 20.0149 5.04803 20.3358 4.40611 20.6568C4.24563 20.7459 4.11635 20.8707 4.01828 21.0312C3.92021 21.1917 3.87118 21.37 3.87118 21.5662V22.4221ZM10.2904 13.8631C10.8788 13.8631 11.3825 13.6536 11.8015 13.2346C12.2206 12.8156 12.4301 12.3118 12.4301 11.7234C12.4301 11.135 12.2206 10.6312 11.8015 10.2122C11.3825 9.79319 10.8788 9.58367 10.2904 9.58367C9.70194 9.58367 9.19821 9.79319 8.77918 10.2122C8.36015 10.6312 8.15063 11.135 8.15063 11.7234C8.15063 12.3118 8.36015 12.8156 8.77918 13.2346C9.19821 13.6536 9.70194 13.8631 10.2904 13.8631Z" fill="#07294D"/>
</svg>
